<svg id="svg" version="1.1" xmlns="http://www.w3.org/2000/svg" xmlns:xlink="http://www.w3.org/1999/xlink" width="400" height="267" viewBox="0, 0, 400,267"><g id="svgg"><path id="path0" d="M92.390 83.703 C 92.170 83.755,91.088 83.942,89.987 84.120 C 85.412 84.858,83.674 85.906,80.900 89.597 C 79.004 92.119,77.250 93.690,75.158 94.739 C 72.650 95.996,71.702 103.412,73.593 106.977 C 74.482 108.652,74.542 108.910,74.381 110.331 C 74.162 112.268,74.463 112.848,75.887 113.232 C 77.378 113.633,78.398 114.798,78.996 116.782 L 79.492 118.425 79.932 117.490 C 80.339 116.626,80.664 115.315,81.984 109.212 C 82.950 104.746,83.088 104.596,86.382 104.388 C 88.434 104.258,89.175 104.068,91.455 103.082 C 96.657 100.833,101.473 101.584,102.538 104.810 C 102.811 105.637,102.949 105.741,103.780 105.741 C 105.202 105.741,106.025 106.760,106.908 109.613 C 108.429 114.527,108.840 115.181,110.014 114.552 C 110.520 114.282,110.540 114.085,110.381 110.871 C 110.229 107.780,110.279 107.190,110.945 104.272 C 112.418 97.807,112.019 95.490,108.858 92.171 C 107.768 91.028,106.690 89.729,106.460 89.285 C 104.864 86.199,96.275 82.792,92.390 83.703 M167.613 99.103 C 162.247 100.132,160.698 102.773,162.649 107.566 C 163.609 109.923,163.943 112.924,163.364 113.990 C 162.547 115.496,161.820 115.621,153.876 115.621 C 149.374 115.621,146.595 115.719,146.595 115.879 C 146.595 116.035,149.139 116.166,153.071 116.212 C 162.951 116.328,170.411 116.185,170.224 115.882 C 170.131 115.733,168.528 115.621,166.473 115.621 C 162.865 115.621,162.372 115.476,163.440 114.727 C 164.701 113.845,164.615 110.686,163.250 107.744 C 161.095 103.096,162.759 100.421,168.360 99.530 C 169.460 99.355,170.360 99.119,170.360 99.005 C 170.360 98.746,169.275 98.785,167.613 99.103 M181.709 115.888 C 181.601 116.063,183.536 116.155,187.316 116.155 C 191.097 116.155,193.032 116.063,192.924 115.888 C 192.823 115.724,190.657 115.621,187.316 115.621 C 183.976 115.621,181.810 115.724,181.709 115.888 M204.406 115.888 C 204.297 116.064,207.433 116.155,213.613 116.155 C 226.820 116.155,227.893 116.872,225.100 123.834 C 223.195 128.583,223.781 130.566,227.547 132.108 C 229.877 133.063,232.652 133.483,232.407 132.845 C 232.309 132.590,231.897 132.442,231.280 132.440 C 226.124 132.423,223.343 129.073,225.209 125.126 C 226.750 121.866,227.021 118.948,225.921 117.460 C 225.616 117.048,225.367 116.586,225.367 116.433 C 225.367 116.243,231.003 116.155,243.124 116.155 C 254.784 116.155,260.881 116.063,260.881 115.888 C 260.881 115.712,251.318 115.621,232.726 115.621 C 214.244 115.621,204.514 115.713,204.406 115.888 M272.497 115.888 C 272.387 116.065,277.261 116.155,286.916 116.155 C 296.571 116.155,301.444 116.065,301.335 115.888 C 301.228 115.715,296.131 115.621,286.916 115.621 C 277.701 115.621,272.603 115.715,272.497 115.888 M312.817 115.888 C 312.708 116.064,315.485 116.155,320.946 116.155 C 326.296 116.155,329.239 116.060,329.239 115.888 C 329.239 115.716,326.351 115.621,321.111 115.621 C 315.980 115.621,312.921 115.719,312.817 115.888 M304.406 121.769 C 304.406 122.083,304.781 123.195,305.239 124.239 C 307.135 128.559,306.393 130.484,302.270 131.944 C 300.534 132.559,300.531 132.559,287.383 132.477 C 275.310 132.402,274.232 132.431,274.232 132.836 C 274.232 133.630,300.217 133.327,302.403 132.506 C 306.808 130.853,307.765 128.476,305.781 124.120 C 305.487 123.474,305.164 122.618,305.063 122.218 C 304.833 121.302,304.406 121.010,304.406 121.769 M244.504 132.621 C 243.962 133.163,245.104 133.244,253.255 133.244 C 261.319 133.244,263.614 133.076,261.880 132.611 C 261.057 132.390,244.725 132.400,244.504 132.621 M70.697 135.569 C 71.030 135.633,71.510 135.631,71.765 135.564 C 72.021 135.497,71.749 135.445,71.162 135.448 C 70.574 135.451,70.365 135.505,70.697 135.569 M76.769 152.858 C 76.622 152.912,76.175 153.029,75.775 153.117 C 74.368 153.427,74.367 153.439,74.349 167.557 C 74.339 174.753,74.315 180.821,74.295 181.041 C 74.275 181.262,74.325 183.995,74.406 187.116 C 74.487 190.237,74.456 192.790,74.336 192.790 C 74.217 192.790,73.093 192.280,71.839 191.656 L 69.559 190.521 66.088 190.533 C 59.364 190.558,55.950 192.359,54.225 196.790 C 53.843 197.773,53.053 199.269,52.470 200.116 C 50.234 203.363,51.193 208.442,54.894 212.959 C 56.011 214.322,56.011 214.321,54.940 214.526 C 50.819 215.313,46.860 221.607,46.865 227.365 C 46.871 233.907,49.642 235.401,58.344 233.555 C 62.228 232.731,63.094 232.686,69.579 232.966 C 77.096 233.290,79.542 232.055,81.062 227.170 C 81.597 225.449,81.632 225.435,83.868 226.063 L 85.395 226.491 85.621 227.971 C 85.933 230.009,86.389 230.280,90.872 231.101 C 95.283 231.908,96.436 231.930,102.615 231.324 C 108.325 230.764,109.776 230.966,114.617 232.996 C 118.215 234.504,123.421 235.875,127.294 236.334 C 130.970 236.770,130.866 236.897,130.662 232.210 C 130.493 228.305,130.836 226.727,132.490 223.824 L 133.293 222.414 136.540 222.489 C 139.268 222.551,139.770 222.627,139.686 222.964 C 139.399 224.104,139.630 224.862,140.661 226.156 C 142.829 228.879,142.800 231.187,140.571 233.260 C 139.073 234.654,138.783 235.458,139.461 236.336 C 141.475 238.943,142.904 239.304,150.868 239.217 C 153.438 239.188,156.142 239.169,156.876 239.173 C 157.671 239.177,159.993 239.705,162.617 240.478 C 170.970 242.937,176.076 242.097,178.244 237.905 C 179.870 234.760,178.312 227.487,175.384 224.559 C 171.017 220.192,168.414 219.469,163.883 221.362 C 160.903 222.607,159.747 222.684,157.419 221.792 L 155.826 221.182 156.618 220.695 C 163.563 216.423,164.555 213.065,161.407 204.479 C 158.906 197.658,155.377 195.326,145.928 194.253 C 145.047 194.153,144.237 193.933,144.130 193.765 C 144.022 193.596,143.932 184.665,143.929 173.918 C 143.925 152.684,144.020 154.071,142.503 153.203 C 141.962 152.893,77.579 152.555,76.769 152.858 M110.528 174.001 C 111.835 175.663,110.197 177.862,108.297 176.996 C 106.415 176.139,107.016 173.298,109.079 173.298 C 109.728 173.298,110.127 173.491,110.528 174.001 " stroke="none" fill="#4a4773" fill-rule="evenodd"></path><path id="path1" d="M0.000 133.511 L 0.000 267.023 200.000 267.023 L 400.000 267.023 400.000 133.511 L 400.000 0.000 200.000 0.000 L 0.000 0.000 0.000 133.511 M150.539 70.027 L 150.610 76.636 140.859 76.636 L 131.108 76.636 131.108 69.957 L 131.108 63.278 140.788 63.348 L 150.467 63.418 150.539 70.027 M185.714 70.093 L 185.714 76.769 176.101 76.769 L 166.489 76.769 166.417 70.366 C 166.377 66.844,166.404 63.808,166.477 63.620 C 166.581 63.348,168.585 63.292,176.161 63.348 L 185.714 63.418 185.714 70.093 M248.002 69.941 C 248.058 74.982,247.997 76.513,247.735 76.679 C 247.173 77.036,228.903 76.956,228.680 76.596 C 228.548 76.382,228.457 65.651,228.568 63.348 C 228.570 63.309,232.927 63.309,238.251 63.348 L 247.931 63.418 248.002 69.941 M99.680 84.346 C 103.517 85.675,105.175 86.809,106.747 89.177 C 107.285 89.987,108.413 91.300,109.253 92.093 C 112.103 94.782,112.665 97.517,111.505 103.051 C 110.569 107.517,110.405 109.578,110.813 111.744 C 111.177 113.672,110.765 114.821,109.627 115.044 C 109.106 115.147,107.877 114.113,107.877 113.572 C 107.877 113.377,107.757 113.218,107.610 113.218 C 107.463 113.218,107.343 113.506,107.343 113.858 C 107.343 114.634,106.009 117.248,104.908 118.630 C 104.316 119.372,104.154 119.792,104.290 120.232 C 104.559 121.097,105.747 123.410,106.103 123.759 C 106.582 124.227,108.761 125.659,109.285 125.850 C 109.546 125.945,109.869 126.296,110.003 126.630 C 110.240 127.220,110.247 127.222,110.263 126.669 C 110.308 125.160,113.621 125.862,116.916 128.078 C 118.976 129.462,121.464 130.574,122.502 130.574 C 123.187 130.574,125.419 131.934,125.981 132.695 C 126.361 133.209,127.094 133.613,128.413 134.038 C 132.705 135.417,134.953 139.721,136.438 149.399 C 137.002 153.070,136.596 152.678,139.931 152.781 C 142.705 152.866,142.882 152.906,143.586 153.611 L 144.326 154.351 144.398 174.071 L 144.469 193.790 146.600 193.976 C 147.773 194.079,148.732 194.247,148.732 194.351 C 148.732 194.454,149.638 194.683,150.747 194.860 C 151.855 195.036,153.147 195.354,153.617 195.566 C 154.088 195.778,155.013 196.184,155.674 196.470 C 158.605 197.736,160.010 199.654,161.977 205.073 C 164.620 212.360,163.504 216.556,157.940 220.241 L 156.661 221.088 157.702 221.523 C 159.196 222.147,162.030 221.904,163.998 220.983 C 171.207 217.608,179.683 225.449,179.114 234.967 C 178.675 242.317,172.948 243.820,159.947 239.998 C 159.433 239.846,155.888 239.699,152.069 239.670 C 142.171 239.595,141.047 239.293,139.093 236.182 C 138.588 235.376,137.940 235.096,132.644 233.388 L 131.108 232.893 131.108 234.383 C 131.108 236.788,130.247 237.233,126.836 236.591 C 126.175 236.467,124.553 236.177,123.231 235.948 C 120.681 235.504,116.552 234.350,116.053 233.942 C 113.710 232.023,108.209 231.096,102.496 231.657 C 97.485 232.148,93.482 232.058,90.654 231.388 C 85.757 230.227,86.162 230.404,85.566 229.164 C 85.264 228.536,84.959 228.081,84.887 228.153 C 84.815 228.225,83.943 228.306,82.948 228.333 C 81.327 228.378,81.094 228.454,80.691 229.071 C 78.111 233.015,76.692 233.495,68.297 233.269 C 62.933 233.124,61.516 233.164,60.080 233.506 C 49.909 235.921,46.487 234.379,46.474 227.370 C 46.462 221.645,51.407 214.152,55.197 214.152 C 55.438 214.152,55.177 213.688,54.511 212.930 C 50.730 208.635,49.995 203.213,52.647 199.182 C 53.184 198.365,53.765 197.172,53.938 196.530 C 54.525 194.349,56.179 192.589,58.718 191.441 L 59.984 190.870 59.764 189.360 C 59.176 185.322,58.980 183.272,58.495 176.101 C 58.206 171.842,57.939 167.577,57.900 166.622 C 57.853 165.459,57.673 164.676,57.353 164.250 C 56.740 163.432,56.750 162.849,57.390 162.036 C 57.750 161.577,57.989 160.614,58.191 158.803 C 58.900 152.445,60.675 146.107,63.030 141.522 C 63.294 141.008,63.714 140.086,63.963 139.472 C 64.735 137.573,66.414 136.355,67.878 136.635 C 68.559 136.765,69.481 136.150,69.732 135.397 C 69.790 135.222,70.408 135.040,71.104 134.993 C 72.863 134.875,73.776 134.437,74.722 133.259 C 75.322 132.513,75.866 132.165,76.796 131.930 C 77.744 131.692,78.518 131.186,79.920 129.888 C 82.026 127.937,82.798 127.619,83.897 128.250 C 84.533 128.615,84.646 128.621,84.646 128.292 C 84.646 128.079,84.828 127.904,85.051 127.904 C 85.613 127.904,86.467 126.406,86.668 125.068 C 86.917 123.406,86.388 122.351,84.535 120.819 C 83.642 120.080,82.409 118.731,81.796 117.821 C 80.689 116.178,80.680 116.172,80.512 116.934 C 80.419 117.356,80.114 117.909,79.834 118.163 C 79.261 118.682,79.322 118.768,78.378 116.096 C 77.875 114.673,76.647 113.485,75.680 113.485 C 74.369 113.485,73.881 112.576,74.084 110.511 C 74.256 108.765,74.221 108.589,73.407 107.166 C 72.568 105.701,72.548 105.591,72.585 102.620 C 72.658 96.693,73.086 95.526,75.727 94.041 C 77.750 92.904,78.686 92.003,80.912 89.052 C 83.014 86.265,83.747 85.665,86.193 84.731 C 90.418 83.117,95.697 82.966,99.680 84.346 M178.509 93.740 C 183.331 96.226,182.753 103.057,177.591 104.578 C 174.650 105.445,171.410 103.815,170.596 101.059 C 170.186 99.672,169.820 99.593,166.955 100.268 C 162.566 101.303,161.724 103.289,163.727 107.885 C 164.780 110.301,164.990 113.552,164.152 114.478 C 163.397 115.314,163.528 115.354,166.993 115.354 L 170.301 115.354 170.470 114.451 C 171.554 108.677,179.957 109.004,181.688 114.887 C 181.813 115.312,182.318 115.354,187.316 115.354 C 192.315 115.354,192.819 115.312,192.945 114.887 C 194.694 108.940,203.063 108.642,204.168 114.486 L 204.332 115.354 232.578 115.354 L 260.823 115.354 260.996 114.664 C 262.385 109.131,270.716 108.782,272.164 114.196 L 272.474 115.354 286.771 115.350 L 301.068 115.347 301.869 113.681 C 304.200 108.836,311.779 109.311,312.591 114.352 L 312.752 115.354 320.990 115.354 L 329.229 115.354 329.410 114.619 C 331.046 107.976,340.587 109.174,340.587 116.023 C 340.587 122.921,331.328 123.859,329.391 117.156 C 329.266 116.724,328.632 116.689,320.970 116.689 L 312.684 116.689 312.684 117.311 C 312.684 119.434,309.397 121.900,306.802 121.722 L 305.439 121.629 305.602 122.496 C 305.692 122.973,306.059 123.994,306.418 124.766 C 308.101 128.381,306.597 131.753,302.882 132.691 C 302.325 132.832,301.389 133.078,300.801 133.239 C 300.093 133.432,295.412 133.524,286.910 133.511 L 274.088 133.491 273.733 134.693 C 272.214 139.837,263.572 139.630,262.596 134.426 L 262.424 133.511 253.241 133.511 C 245.151 133.511,244.059 133.560,244.059 133.923 C 244.059 136.057,240.947 138.582,238.318 138.582 C 235.933 138.582,233.079 136.506,232.702 134.497 C 232.538 133.620,232.469 133.572,231.142 133.416 C 224.573 132.644,222.419 129.721,224.534 124.449 C 226.205 120.283,226.227 118.535,224.625 117.356 C 223.934 116.849,223.413 116.819,214.085 116.746 L 204.272 116.670 204.272 117.301 C 204.272 119.276,201.197 121.765,198.762 121.760 C 196.124 121.754,193.057 119.363,193.057 117.311 L 193.057 116.689 187.442 116.689 C 182.323 116.689,181.814 116.730,181.691 117.156 C 180.016 122.950,171.605 123.246,170.466 117.550 L 170.294 116.689 158.507 116.689 L 146.721 116.689 146.252 118.008 C 144.127 123.991,135.113 122.300,135.113 115.918 C 135.113 109.590,144.137 108.078,146.258 114.051 L 146.721 115.354 153.678 115.354 C 164.039 115.354,165.466 113.975,162.045 107.268 C 159.854 102.975,162.647 99.234,168.498 98.622 L 170.048 98.460 170.601 96.944 C 171.773 93.730,175.534 92.206,178.509 93.740 M226.464 117.680 C 227.314 119.347,227.023 122.010,225.661 125.009 C 223.955 128.767,225.393 131.027,230.033 131.885 C 232.264 132.298,232.577 132.266,232.577 131.632 C 232.577 125.971,242.371 125.450,243.863 131.031 L 244.170 132.176 253.271 132.176 L 262.373 132.176 262.685 131.006 C 264.115 125.662,272.330 125.649,273.759 130.990 L 274.076 132.176 286.504 132.174 C 302.005 132.172,303.919 131.888,305.479 129.365 C 306.209 128.183,306.129 127.551,304.834 124.235 C 304.305 122.881,303.872 121.545,303.872 121.265 C 303.872 120.985,303.595 120.574,303.256 120.352 C 302.695 119.984,301.702 118.314,301.357 117.156 C 301.227 116.719,300.301 116.689,286.812 116.689 L 272.406 116.689 272.218 117.544 C 271.093 122.666,263.672 123.184,261.465 118.295 L 260.748 116.707 243.353 116.698 L 225.959 116.689 226.464 117.680 M107.877 174.099 C 107.169 174.807,107.196 175.834,107.937 176.353 C 109.205 177.242,110.636 176.613,110.636 175.167 C 110.636 173.663,108.961 173.015,107.877 174.099 " stroke="none" fill="#f5f5fb" fill-rule="evenodd"></path><path id="path2" d="M166.622 70.093 L 166.622 76.642 176.035 76.572 L 185.447 76.502 185.447 70.093 L 185.447 63.685 176.035 63.615 L 166.622 63.545 166.622 70.093 M136.933 64.018 C 139.328 64.063,143.174 64.063,145.477 64.018 C 147.781 63.974,145.821 63.937,141.121 63.938 C 136.422 63.938,134.537 63.974,136.933 64.018 M149.867 65.287 C 149.870 65.874,149.925 66.083,149.989 65.751 C 150.052 65.419,150.050 64.938,149.983 64.683 C 149.916 64.428,149.864 64.700,149.867 65.287 M149.896 71.829 C 149.896 73.224,149.941 73.795,149.996 73.097 C 150.051 72.400,150.051 71.258,149.996 70.561 C 149.941 69.863,149.896 70.434,149.896 71.829 M134.913 76.298 C 135.611 76.353,136.752 76.353,137.450 76.298 C 138.148 76.243,137.577 76.198,136.182 76.198 C 134.786 76.198,134.216 76.243,134.913 76.298 M143.747 76.279 C 143.996 76.528,148.695 76.558,149.081 76.312 C 149.256 76.201,148.087 76.108,146.484 76.106 C 144.881 76.103,143.649 76.181,143.747 76.279 M174.310 93.722 C 173.207 94.055,172.000 95.011,171.323 96.090 C 167.824 101.669,175.284 107.610,179.867 102.895 C 183.927 98.718,179.882 92.042,174.310 93.722 M141.117 110.807 C 141.186 110.918,141.635 111.076,142.116 111.156 C 142.597 111.237,143.231 111.382,143.525 111.479 C 143.962 111.624,143.982 111.606,143.635 111.380 C 143.093 111.026,140.952 110.540,141.117 110.807 M198.783 110.789 C 198.862 110.917,199.349 111.072,199.864 111.132 C 200.379 111.192,200.711 111.161,200.601 111.063 C 200.283 110.780,198.623 110.530,198.783 110.789 M307.311 110.889 C 307.440 111.018,307.890 111.080,308.312 111.028 C 309.018 110.940,308.999 110.921,308.078 110.793 C 307.504 110.714,307.177 110.755,307.311 110.889 M138.748 111.033 C 138.674 111.153,138.967 111.200,139.400 111.136 C 139.833 111.073,140.187 110.974,140.187 110.918 C 140.187 110.714,138.880 110.819,138.748 111.033 M196.529 111.094 C 196.236 111.292,196.344 111.316,196.929 111.186 C 197.911 110.966,198.124 110.813,197.441 110.819 C 197.160 110.821,196.749 110.945,196.529 111.094 M264.685 110.992 C 264.315 111.141,264.493 111.615,264.918 111.615 C 265.065 111.615,265.116 111.504,265.032 111.368 C 264.948 111.231,265.151 111.067,265.483 111.003 C 265.984 110.907,265.997 110.885,265.554 110.872 C 265.260 110.863,264.869 110.917,264.685 110.992 M332.977 111.094 C 332.685 111.292,332.793 111.316,333.378 111.186 C 334.360 110.966,334.573 110.813,333.890 110.819 C 333.608 110.821,333.198 110.945,332.977 111.094 M172.726 111.736 C 171.560 112.528,171.370 112.945,171.864 113.620 C 172.211 114.096,172.228 114.075,172.083 113.342 C 171.943 112.634,172.047 112.472,173.066 111.816 C 173.693 111.412,174.089 111.081,173.947 111.081 C 173.805 111.081,173.255 111.376,172.726 111.736 M303.980 111.682 C 303.476 112.278,303.476 112.279,304.005 111.851 C 304.299 111.613,304.720 111.352,304.940 111.271 C 305.280 111.146,305.276 111.120,304.915 111.103 C 304.680 111.091,304.260 111.352,303.980 111.682 M263.363 111.880 C 263.286 112.172,263.119 112.346,262.990 112.266 C 262.862 112.187,262.837 112.330,262.934 112.586 C 263.093 112.999,263.141 112.986,263.373 112.466 C 263.516 112.145,263.735 111.883,263.859 111.883 C 263.984 111.883,264.085 111.762,264.085 111.615 C 264.085 111.127,263.504 111.340,263.363 111.880 M338.288 112.116 C 338.785 112.584,339.257 112.901,339.336 112.822 C 339.487 112.671,338.824 112.086,337.917 111.570 C 337.623 111.402,337.790 111.648,338.288 112.116 M201.602 111.762 C 201.602 111.843,202.023 112.342,202.537 112.871 C 203.051 113.401,203.471 114.055,203.471 114.327 C 203.471 114.598,203.593 114.820,203.742 114.820 C 204.158 114.820,203.269 112.900,202.536 112.216 C 201.900 111.622,201.602 111.478,201.602 111.762 M310.080 111.800 C 310.337 111.867,310.547 112.033,310.547 112.169 C 310.547 112.305,310.682 112.417,310.847 112.417 C 311.054 112.417,311.044 112.293,310.814 112.016 C 310.632 111.796,310.286 111.629,310.047 111.646 C 309.681 111.673,309.686 111.697,310.080 111.800 M330.903 112.537 C 330.074 113.490,330.154 113.978,331.000 113.131 C 331.382 112.750,331.650 112.306,331.596 112.145 C 331.542 111.983,331.230 112.160,330.903 112.537 M194.405 112.661 C 194.241 112.967,194.218 113.218,194.355 113.218 C 194.629 113.218,195.008 112.409,194.821 112.222 C 194.756 112.157,194.569 112.354,194.405 112.661 M302.578 113.010 C 301.937 114.023,302.073 114.418,302.737 113.470 C 303.153 112.877,303.411 112.150,303.207 112.150 C 303.161 112.150,302.878 112.537,302.578 113.010 M180.530 113.885 C 181.261 115.567,181.433 115.736,181.207 114.554 C 181.109 114.040,180.786 113.379,180.489 113.085 C 179.967 112.567,179.968 112.593,180.530 113.885 M261.949 113.218 C 261.779 113.537,261.699 113.857,261.772 113.931 C 261.846 114.004,262.046 113.804,262.216 113.485 C 262.387 113.166,262.466 112.845,262.393 112.771 C 262.320 112.698,262.120 112.899,261.949 113.218 M145.270 113.233 C 145.265 113.462,145.437 113.883,145.652 114.168 C 146.154 114.832,146.160 114.358,145.661 113.485 C 145.416 113.057,145.276 112.967,145.270 113.233 M193.370 115.071 C 193.145 115.715,193.165 115.830,193.477 115.710 C 193.687 115.630,193.858 115.697,193.858 115.859 C 193.858 116.022,193.979 116.155,194.126 116.155 C 194.272 116.155,194.393 115.975,194.393 115.754 C 194.393 115.534,194.242 115.384,194.059 115.421 C 193.857 115.461,193.750 115.249,193.789 114.887 C 193.877 114.056,193.696 114.135,193.370 115.071 M135.457 116.021 C 135.459 116.756,135.511 117.024,135.572 116.618 C 135.633 116.213,135.632 115.612,135.568 115.283 C 135.505 114.955,135.455 115.287,135.457 116.021 M312.150 115.868 C 312.506 116.123,312.506 116.184,312.150 116.418 C 311.810 116.641,311.823 116.681,312.236 116.685 C 312.823 116.690,312.750 115.853,312.150 115.689 C 311.794 115.592,311.794 115.612,312.150 115.868 M136.182 116.807 C 136.182 117.238,136.560 117.557,136.793 117.323 C 137.002 117.115,136.715 116.422,136.420 116.422 C 136.289 116.422,136.182 116.595,136.182 116.807 M303.342 117.023 C 303.340 117.427,303.458 117.757,303.605 117.757 C 303.942 117.757,303.942 117.211,303.605 116.689 C 303.403 116.377,303.345 116.450,303.342 117.023 M310.184 116.822 C 310.268 117.043,310.468 117.223,310.627 117.223 C 310.786 117.223,310.683 117.399,310.398 117.615 C 309.958 117.948,309.946 118.008,310.319 118.016 C 310.923 118.027,311.162 117.265,310.699 116.803 C 310.206 116.309,309.990 116.318,310.184 116.822 M329.903 116.695 C 329.576 117.223,330.062 118.434,330.998 119.426 C 332.045 120.535,332.355 120.706,331.847 119.893 C 331.664 119.599,331.432 119.359,331.333 119.359 C 330.952 119.359,329.990 117.444,330.120 116.945 C 330.269 116.376,330.170 116.262,329.903 116.695 M270.948 117.768 C 270.860 118.106,270.958 118.190,271.329 118.093 C 271.912 117.940,272.008 117.312,271.448 117.312 C 271.239 117.312,271.013 117.517,270.948 117.768 M193.752 118.024 C 193.943 118.738,194.667 119.918,194.648 119.485 C 194.642 119.342,194.398 118.805,194.105 118.291 C 193.708 117.593,193.618 117.526,193.752 118.024 M145.379 118.338 C 145.271 118.679,144.749 119.363,144.220 119.858 C 143.691 120.353,143.499 120.635,143.795 120.484 C 144.692 120.026,146.034 118.175,145.707 117.848 C 145.635 117.776,145.487 117.996,145.379 118.338 M171.853 118.651 C 171.889 118.967,171.928 119.376,171.940 119.559 C 171.953 119.743,172.087 119.893,172.239 119.893 C 172.425 119.893,172.429 119.732,172.252 119.400 C 172.076 119.072,172.079 118.816,172.260 118.634 C 172.445 118.449,172.414 118.316,172.161 118.219 C 171.904 118.121,171.809 118.255,171.853 118.651 M302.299 118.291 C 302.292 118.511,302.463 118.925,302.679 119.210 C 302.894 119.495,303.074 119.615,303.079 119.477 C 303.083 119.339,303.209 119.436,303.359 119.693 C 303.509 119.950,303.767 120.160,303.933 120.160 C 304.099 120.160,303.870 119.830,303.424 119.426 C 302.979 119.022,302.546 118.511,302.463 118.291 C 302.329 117.935,302.310 117.935,302.299 118.291 M262.675 118.722 C 262.329 119.069,262.472 119.378,263.344 120.175 C 264.475 121.208,264.823 121.184,263.887 120.138 C 263.482 119.685,263.087 119.138,263.009 118.922 C 262.931 118.707,262.781 118.617,262.675 118.722 M136.696 119.272 C 137.142 120.186,138.364 121.051,138.622 120.635 C 138.767 120.401,138.607 120.233,138.115 120.100 C 137.719 119.994,137.175 119.634,136.904 119.299 C 136.432 118.715,136.424 118.714,136.696 119.272 M179.419 119.796 C 178.824 120.443,178.817 120.476,179.341 120.204 C 179.654 120.041,179.981 119.724,180.067 119.500 C 180.285 118.931,180.164 118.986,179.419 119.796 M173.565 119.922 C 173.565 120.312,173.442 120.437,173.164 120.331 C 172.444 120.054,172.744 120.378,173.606 120.808 C 174.069 121.039,174.640 121.219,174.874 121.207 C 175.109 121.196,174.971 121.066,174.568 120.919 C 173.918 120.681,173.881 120.607,174.237 120.251 C 174.683 119.805,174.539 119.359,173.950 119.359 C 173.736 119.359,173.565 119.610,173.565 119.922 M195.461 120.294 C 195.806 120.661,196.337 120.953,196.642 120.943 C 197.144 120.927,197.134 120.896,196.529 120.614 C 196.162 120.443,195.702 120.151,195.508 119.965 C 194.863 119.345,194.823 119.616,195.461 120.294 M337.774 120.306 C 337.585 120.533,337.240 120.646,337.007 120.557 C 336.687 120.436,336.658 120.472,336.887 120.703 C 337.227 121.045,338.318 120.624,338.318 120.151 C 338.318 119.787,338.169 119.830,337.774 120.306 M305.410 121.150 C 305.742 121.214,306.223 121.212,306.478 121.145 C 306.734 121.078,306.462 121.026,305.874 121.029 C 305.287 121.032,305.078 121.086,305.410 121.150 M111.838 126.494 C 111.275 126.627,111.132 127.013,110.672 129.652 C 109.839 134.426,108.247 137.563,105.856 139.145 C 102.093 141.635,102.031 141.654,96.873 141.937 C 93.657 142.113,89.919 140.308,87.775 137.544 C 86.570 135.990,84.913 132.997,84.913 132.374 C 84.913 132.177,84.763 131.867,84.579 131.685 C 84.396 131.504,84.125 130.742,83.978 129.992 C 83.607 128.101,83.184 127.914,81.636 128.959 C 80.946 129.425,80.229 130.009,80.044 130.257 C 79.484 131.005,77.773 132.176,77.240 132.176 C 76.555 132.176,74.456 133.759,74.673 134.111 C 74.777 134.278,74.722 134.317,74.541 134.204 C 74.371 134.100,74.232 134.120,74.232 134.249 C 74.232 134.671,71.929 135.648,70.934 135.648 C 70.206 135.648,69.775 135.846,69.202 136.445 C 68.783 136.884,68.351 137.154,68.243 137.046 C 67.993 136.795,66.756 136.764,66.756 137.008 C 66.756 137.109,66.450 137.268,66.077 137.362 C 65.703 137.456,65.322 137.730,65.229 137.972 C 65.137 138.213,64.841 138.630,64.573 138.898 C 64.305 139.166,64.085 139.732,64.085 140.154 C 64.085 140.577,63.905 141.072,63.685 141.255 C 63.465 141.438,63.284 141.744,63.284 141.936 C 63.284 142.128,63.121 142.448,62.922 142.648 C 62.722 142.847,62.397 143.486,62.200 144.069 C 62.002 144.651,61.745 145.241,61.628 145.381 C 61.511 145.520,61.415 145.884,61.415 146.189 C 61.415 146.494,61.253 146.981,61.055 147.270 C 60.696 147.794,60.345 148.905,60.210 149.944 C 60.171 150.243,59.939 151.079,59.693 151.802 C 59.448 152.525,59.219 153.603,59.185 154.198 C 59.150 154.794,59.028 155.432,58.914 155.618 C 58.799 155.803,58.781 156.300,58.874 156.723 C 58.972 157.167,58.922 157.568,58.756 157.670 C 58.599 157.767,58.490 158.427,58.515 159.136 C 58.546 159.997,58.375 160.781,58.003 161.495 C 57.697 162.083,57.518 162.636,57.606 162.724 C 57.694 162.812,57.611 162.884,57.422 162.884 C 57.157 162.884,57.149 162.970,57.388 163.258 C 57.654 163.579,57.817 163.574,58.515 163.226 C 59.952 162.509,64.654 162.747,69.159 163.765 C 72.598 164.542,74.232 164.616,74.232 163.994 C 74.232 163.694,74.106 163.372,73.952 163.276 C 73.782 163.171,73.767 162.981,73.912 162.793 C 74.044 162.623,74.172 160.801,74.197 158.745 C 74.245 154.815,74.496 153.464,75.247 153.094 C 75.496 152.971,89.236 152.838,105.780 152.798 C 131.702 152.736,135.903 152.672,136.180 152.338 C 136.519 151.929,136.302 148.626,135.950 148.843 C 135.852 148.904,135.755 148.250,135.736 147.391 C 135.716 146.531,135.605 145.675,135.490 145.489 C 135.375 145.302,135.253 144.896,135.220 144.586 C 135.187 144.276,135.008 143.490,134.823 142.839 C 134.637 142.188,134.506 141.565,134.532 141.455 C 134.558 141.345,134.473 141.255,134.342 141.255 C 134.212 141.255,134.025 140.831,133.928 140.313 C 133.831 139.795,133.639 139.441,133.501 139.526 C 133.363 139.611,133.315 139.513,133.393 139.309 C 133.471 139.105,133.350 138.783,133.123 138.595 C 132.896 138.406,132.710 138.107,132.710 137.929 C 132.710 137.751,132.350 137.284,131.909 136.891 C 131.469 136.499,131.108 136.052,131.108 135.899 C 131.108 135.745,130.748 135.494,130.307 135.340 C 129.866 135.187,129.506 134.953,129.506 134.820 C 129.506 134.688,129.273 134.579,128.988 134.579 C 128.703 134.579,128.392 134.454,128.298 134.302 C 128.203 134.149,127.900 134.095,127.624 134.183 C 127.257 134.300,126.715 133.942,125.607 132.851 C 124.773 132.031,124.029 131.423,123.953 131.499 C 123.877 131.575,123.653 131.504,123.456 131.340 C 123.259 131.177,123.097 131.132,123.097 131.242 C 123.097 131.351,122.947 131.320,122.764 131.173 C 122.580 131.026,121.763 130.715,120.949 130.481 C 120.134 130.248,118.739 129.586,117.848 129.010 C 116.958 128.434,115.972 127.882,115.658 127.782 C 115.344 127.682,115.087 127.501,115.087 127.378 C 115.087 126.915,112.751 126.280,111.838 126.494 " stroke="none" fill="#69b9a7" fill-rule="evenodd"></path><path id="path3" d="M228.838 63.752 C 228.838 63.862,231.271 63.921,234.245 63.884 C 244.350 63.756,245.280 63.665,237.049 63.608 C 232.533 63.577,228.838 63.642,228.838 63.752 M245.950 63.647 C 246.246 63.900,247.808 64.053,247.661 63.814 C 247.572 63.670,247.125 63.551,246.669 63.551 C 246.212 63.551,245.889 63.594,245.950 63.647 M228.838 76.202 C 228.838 76.594,229.752 76.636,238.318 76.636 C 246.846 76.636,247.797 76.592,247.797 76.206 C 247.797 75.890,247.675 75.836,247.330 76.003 C 246.555 76.378,229.662 76.452,229.216 76.083 C 228.917 75.834,228.838 75.859,228.838 76.202 M96.195 101.920 C 96.452 101.987,96.872 101.987,97.130 101.920 C 97.387 101.853,97.176 101.798,96.662 101.798 C 96.148 101.798,95.938 101.853,96.195 101.920 M110.348 127.503 C 110.351 128.091,110.405 128.300,110.469 127.968 C 110.533 127.635,110.531 127.155,110.464 126.899 C 110.397 126.644,110.345 126.916,110.348 127.503 M237.854 127.292 C 238.186 127.356,238.666 127.353,238.922 127.286 C 239.177 127.219,238.905 127.167,238.318 127.170 C 237.730 127.173,237.521 127.228,237.854 127.292 M267.760 127.292 C 268.092 127.356,268.573 127.353,268.828 127.286 C 269.084 127.219,268.812 127.167,268.224 127.170 C 267.637 127.173,267.428 127.228,267.760 127.292 M270.227 127.770 C 270.594 127.980,271.015 128.152,271.162 128.152 C 271.308 128.152,271.128 127.980,270.761 127.770 C 270.394 127.560,269.973 127.389,269.826 127.389 C 269.680 127.389,269.860 127.560,270.227 127.770 M264.683 128.349 C 264.498 128.423,264.218 128.723,264.062 129.015 C 263.808 129.490,263.834 129.517,264.301 129.267 C 264.693 129.057,265.404 128.074,265.078 128.192 C 265.046 128.204,264.868 128.274,264.683 128.349 M110.013 129.445 C 110.013 129.852,109.781 131.022,109.498 132.045 C 108.890 134.235,108.980 134.745,109.608 132.670 C 110.099 131.045,110.439 128.705,110.184 128.705 C 110.090 128.705,110.013 129.038,110.013 129.445 M272.072 129.194 C 272.389 129.785,273.168 130.465,273.155 130.140 C 273.144 129.850,272.204 128.705,271.977 128.705 C 271.885 128.705,271.928 128.925,272.072 129.194 M84.666 130.193 C 84.638 130.596,85.485 133.028,85.610 132.904 C 85.666 132.847,85.481 132.150,85.199 131.354 C 84.916 130.558,84.676 130.035,84.666 130.193 M243.373 131.242 C 243.477 131.682,243.672 132.155,243.806 132.292 C 243.946 132.435,243.942 132.166,243.795 131.655 C 243.471 130.522,243.121 130.181,243.373 131.242 M262.720 131.709 C 262.703 132.039,262.710 132.520,262.736 132.777 C 262.763 133.034,262.626 133.246,262.433 133.248 C 262.195 133.251,262.177 133.315,262.377 133.449 C 262.538 133.557,262.739 133.825,262.823 134.045 C 262.907 134.266,262.985 133.695,262.996 132.777 C 263.016 131.231,262.789 130.355,262.720 131.709 M85.982 133.934 C 85.984 134.238,86.993 135.915,87.174 135.915 C 87.248 135.915,87.056 135.464,86.749 134.913 C 86.102 133.753,85.981 133.598,85.982 133.934 M243.436 133.956 C 243.338 134.054,243.265 134.385,243.275 134.691 C 243.290 135.202,243.312 135.196,243.547 134.607 C 243.809 133.954,243.755 133.637,243.436 133.956 M272.882 135.288 C 272.506 136.056,272.298 136.623,272.418 136.548 C 272.728 136.357,273.747 134.312,273.647 134.083 C 273.602 133.978,273.257 134.521,272.882 135.288 M108.049 135.520 C 107.677 136.185,107.489 136.657,107.629 136.570 C 107.909 136.397,109.027 134.312,108.840 134.312 C 108.776 134.312,108.420 134.856,108.049 135.520 M233.581 135.784 C 233.736 136.079,234.131 136.560,234.460 136.852 C 235.057 137.383,235.057 137.383,234.777 136.846 C 234.622 136.551,234.226 136.070,233.898 135.778 C 233.301 135.248,233.300 135.248,233.581 135.784 M242.409 136.146 C 241.590 137.158,240.497 137.832,239.296 138.066 C 238.324 138.255,238.323 138.257,239.155 138.287 C 240.090 138.321,242.288 136.980,242.934 135.981 C 243.485 135.129,243.146 135.236,242.409 136.146 M263.794 136.137 C 263.938 136.406,264.266 136.796,264.522 137.005 C 264.811 137.239,264.746 137.052,264.353 136.515 C 263.652 135.557,263.389 135.379,263.794 136.137 M87.812 136.908 C 88.508 137.910,89.122 138.396,88.703 137.613 C 88.555 137.336,88.160 136.871,87.825 136.579 L 87.215 136.048 87.812 136.908 M105.741 138.361 C 104.933 139.107,104.633 139.473,105.073 139.175 C 105.827 138.666,107.580 136.969,107.326 136.994 C 107.262 137.001,106.549 137.616,105.741 138.361 M89.194 138.201 C 89.217 138.888,93.353 141.270,94.481 141.245 C 94.726 141.240,94.280 141.003,93.489 140.719 C 91.859 140.132,90.978 139.618,89.920 138.634 C 89.516 138.258,89.189 138.063,89.194 138.201 M103.071 140.187 C 102.557 140.468,102.232 140.704,102.350 140.710 C 102.633 140.725,104.139 139.941,104.139 139.780 C 104.139 139.605,104.123 139.611,103.071 140.187 M101.429 140.850 C 101.358 140.920,100.647 141.097,99.849 141.241 L 98.398 141.504 99.801 141.392 C 101.004 141.296,102.681 140.752,101.847 140.729 C 101.688 140.725,101.500 140.779,101.429 140.850 M95.082 141.354 C 95.144 141.409,95.794 141.523,96.529 141.608 C 97.429 141.712,97.646 141.688,97.196 141.535 C 96.529 141.308,94.872 141.167,95.082 141.354 M60.016 163.340 C 60.349 163.404,60.829 163.401,61.085 163.334 C 61.340 163.268,61.068 163.215,60.481 163.218 C 59.893 163.221,59.684 163.276,60.016 163.340 M62.821 163.342 C 63.227 163.404,63.827 163.402,64.156 163.339 C 64.484 163.275,64.152 163.225,63.418 163.227 C 62.684 163.229,62.415 163.281,62.821 163.342 M69.292 164.346 C 70.027 164.541,70.928 164.703,71.295 164.704 L 71.963 164.707 71.290 164.503 C 70.920 164.390,70.019 164.229,69.287 164.144 L 67.957 163.989 69.292 164.346 M73.431 182.243 C 73.431 182.610,73.535 182.911,73.661 182.911 C 73.788 182.911,73.834 182.610,73.764 182.243 C 73.693 181.876,73.590 181.575,73.534 181.575 C 73.477 181.575,73.431 181.876,73.431 182.243 M64.953 190.316 C 65.651 190.371,66.792 190.371,67.490 190.316 C 68.188 190.261,67.617 190.216,66.222 190.216 C 64.826 190.216,64.256 190.261,64.953 190.316 M130.660 230.975 C 130.660 231.929,130.708 232.320,130.767 231.842 C 130.826 231.365,130.826 230.584,130.767 230.107 C 130.708 229.630,130.660 230.020,130.660 230.975 " stroke="none" fill="#d28eb8" fill-rule="evenodd"></path><path id="path4" d="M237.116 63.814 L 228.972 63.952 228.900 69.793 C 228.848 73.992,228.917 75.740,229.144 76.014 C 229.553 76.507,246.774 76.431,247.270 75.934 C 247.606 75.598,247.653 64.354,247.320 64.055 C 246.948 63.720,245.160 63.677,237.116 63.814 M236.010 127.727 C 230.917 129.991,232.647 138.174,238.207 138.122 C 240.407 138.101,243.253 136.216,243.256 134.776 C 243.257 134.517,243.396 134.083,243.566 133.811 C 244.426 132.435,242.162 127.904,240.614 127.904 C 240.323 127.904,240.011 127.784,239.920 127.637 C 239.696 127.274,236.884 127.338,236.010 127.727 M265.754 127.901 C 265.277 128.192,264.887 128.555,264.887 128.707 C 264.887 128.859,264.592 129.118,264.232 129.282 C 262.689 129.985,262.506 133.998,263.929 135.937 C 266.991 140.109,273.698 137.951,273.698 132.793 C 273.698 128.997,268.851 126.013,265.754 127.901 " stroke="none" fill="#f67b9c" fill-rule="evenodd"></path><path id="path5" d="M228.686 69.960 C 228.686 73.264,228.724 74.616,228.771 72.964 C 228.818 71.312,228.818 68.608,228.771 66.956 C 228.724 65.304,228.686 66.656,228.686 69.960 M247.643 69.693 C 247.643 72.850,247.682 74.142,247.729 72.563 C 247.777 70.985,247.777 68.401,247.729 66.822 C 247.682 65.244,247.643 66.535,247.643 69.693 M92.924 103.212 C 91.969 103.555,90.951 103.982,90.660 104.161 C 89.764 104.714,87.794 105.108,86.068 105.081 C 85.161 105.067,84.477 105.149,84.548 105.265 C 84.619 105.380,84.483 105.474,84.246 105.474 C 84.008 105.474,83.888 105.594,83.979 105.741 C 84.069 105.888,84.036 106.008,83.904 106.008 C 83.588 106.008,83.044 107.219,83.044 107.921 C 83.044 108.224,82.866 109.030,82.649 109.710 C 81.104 114.548,81.332 118.558,83.153 118.558 C 83.340 118.558,83.621 118.840,83.778 119.184 C 83.935 119.529,84.645 120.186,85.356 120.646 C 87.138 121.797,87.478 122.109,87.092 122.238 C 86.920 122.295,86.867 122.482,86.973 122.653 C 87.534 123.550,87.569 125.251,87.053 126.560 C 86.590 127.733,86.586 127.860,86.990 128.264 C 87.310 128.584,87.348 128.781,87.131 128.997 C 86.915 129.213,86.788 129.142,86.657 128.732 C 86.455 128.095,86.021 128.018,85.369 128.505 C 84.850 128.893,85.112 129.885,86.533 132.911 C 86.964 133.830,87.316 134.712,87.316 134.873 C 87.316 135.878,89.869 138.132,90.277 137.488 C 90.407 137.283,90.514 137.242,90.517 137.397 C 90.519 137.551,90.397 137.801,90.245 137.953 C 90.055 138.143,90.305 138.380,91.046 138.714 C 91.638 138.981,92.123 139.280,92.123 139.377 C 92.123 140.039,94.973 140.701,95.511 140.164 C 95.720 139.955,95.851 139.955,95.980 140.164 C 96.079 140.323,96.032 140.454,95.877 140.454 C 95.721 140.454,95.594 140.574,95.594 140.721 C 95.594 141.165,99.744 141.057,100.120 140.603 C 100.296 140.392,100.581 140.273,100.755 140.340 C 101.308 140.552,104.979 138.628,105.131 138.046 C 105.208 137.752,105.547 137.442,105.884 137.357 C 106.221 137.272,106.638 136.862,106.811 136.445 C 106.984 136.027,107.283 135.625,107.476 135.551 C 107.669 135.477,107.910 135.018,108.012 134.531 C 108.113 134.043,108.347 133.405,108.531 133.111 C 109.068 132.254,109.773 128.638,109.586 127.703 C 109.419 126.866,108.050 125.844,105.684 124.789 C 105.232 124.588,104.897 124.183,104.796 123.715 C 104.706 123.302,104.417 122.543,104.154 122.029 C 103.294 120.351,103.258 119.425,104.025 118.758 C 104.397 118.435,104.929 117.656,105.206 117.029 C 105.484 116.401,105.813 115.888,105.938 115.888 C 107.152 115.888,107.177 112.178,105.980 109.584 C 105.702 108.980,105.474 108.189,105.474 107.826 C 105.474 107.055,104.548 106.450,103.565 106.579 C 102.714 106.691,101.630 105.653,101.206 104.321 C 100.986 103.630,100.761 103.347,100.507 103.445 C 100.302 103.523,100.134 103.491,100.134 103.372 C 100.134 102.429,95.397 102.324,92.924 103.212 M84.002 112.081 C 83.711 112.373,83.511 111.909,83.720 111.427 C 83.919 110.969,83.933 110.970,84.044 111.436 C 84.107 111.705,84.089 111.995,84.002 112.081 M108.140 129.039 C 108.138 129.369,108.033 129.803,107.906 130.002 C 107.568 130.536,107.254 129.899,107.457 129.090 C 107.662 128.271,108.146 128.235,108.140 129.039 M89.599 135.790 L 89.956 136.849 89.305 136.048 C 88.627 135.214,88.437 134.463,88.947 134.633 C 89.109 134.687,89.402 135.208,89.599 135.790 M104.635 137.012 C 104.059 137.377,103.776 137.286,104.136 136.852 C 104.318 136.633,104.586 136.528,104.732 136.618 C 104.893 136.718,104.855 136.872,104.635 137.012 M103.071 138.051 C 103.071 138.198,102.800 138.316,102.470 138.314 C 101.984 138.310,101.946 138.260,102.270 138.051 C 102.787 137.716,103.071 137.716,103.071 138.051 M59.880 164.289 L 58.478 164.825 58.488 166.858 C 58.493 167.977,58.628 170.874,58.789 173.298 C 58.949 175.721,59.073 178.094,59.065 178.571 C 59.057 179.049,59.145 179.439,59.262 179.439 C 59.378 179.439,59.558 180.820,59.662 182.508 C 59.766 184.195,59.893 185.908,59.945 186.315 C 59.996 186.721,60.108 187.650,60.194 188.378 C 60.400 190.127,60.824 190.552,61.966 190.154 C 63.294 189.691,69.459 189.763,70.397 190.252 C 70.817 190.471,71.394 190.652,71.678 190.653 C 71.963 190.653,72.480 190.921,72.827 191.248 C 73.795 192.157,73.980 191.538,73.924 187.583 C 73.879 184.462,73.809 183.996,73.229 182.957 L 72.584 181.803 73.208 180.287 C 73.803 178.841,73.832 178.474,73.832 172.254 L 73.832 165.736 72.096 165.365 C 71.142 165.162,70.060 164.950,69.693 164.895 C 69.326 164.840,68.004 164.615,66.756 164.394 C 62.898 163.711,61.449 163.689,59.880 164.289 M132.698 225.300 C 130.612 230.299,130.674 232.577,132.896 232.577 C 133.341 232.577,134.021 232.824,134.406 233.127 C 135.162 233.722,135.743 233.827,136.582 233.522 C 137.010 233.366,137.037 233.385,136.716 233.616 C 136.365 233.868,136.369 233.904,136.750 233.908 C 136.989 233.910,137.334 234.092,137.517 234.312 C 138.013 234.910,138.553 234.797,138.739 234.057 C 138.830 233.697,139.303 233.097,139.792 232.724 C 140.818 231.941,141.522 230.679,141.522 229.620 C 141.522 228.619,141.258 228.004,140.919 228.214 C 140.756 228.314,140.718 228.259,140.827 228.082 C 140.931 227.914,140.887 227.625,140.729 227.440 C 139.384 225.854,139.086 225.416,138.954 224.833 C 138.568 223.135,138.742 223.231,136.055 223.231 L 133.561 223.231 132.698 225.300 M81.871 226.858 C 81.466 227.913,81.653 228.067,83.242 227.984 C 85.168 227.883,85.510 227.233,83.892 226.748 C 82.498 226.330,82.064 226.354,81.871 226.858 " stroke="none" fill="#fabcbb" fill-rule="evenodd"></path><path id="path6" d="M228.429 63.566 C 228.331 63.724,228.330 63.933,228.426 64.029 C 228.522 64.125,228.692 64.055,228.804 63.874 C 228.961 63.621,231.163 63.561,238.336 63.615 L 247.664 63.685 247.807 70.227 L 247.950 76.769 247.940 70.093 L 247.931 63.418 238.269 63.348 C 231.573 63.299,228.552 63.366,228.429 63.566 M228.501 76.004 C 227.988 76.820,229.047 76.909,238.349 76.836 L 247.664 76.762 238.271 76.699 C 229.567 76.640,228.871 76.601,228.785 76.168 C 228.724 75.862,228.626 75.806,228.501 76.004 M92.991 83.506 C 93.541 83.563,94.443 83.563,94.993 83.506 C 95.544 83.448,95.093 83.401,93.992 83.401 C 92.891 83.401,92.440 83.448,92.991 83.506 M91.589 103.273 C 89.083 104.380,88.532 104.523,86.401 104.621 C 83.104 104.771,83.298 104.449,81.469 112.782 L 80.715 116.218 81.813 117.847 C 82.417 118.743,83.642 120.080,84.535 120.819 C 86.388 122.351,86.917 123.406,86.668 125.068 C 86.467 126.406,85.613 127.904,85.051 127.904 C 84.828 127.904,84.646 128.099,84.646 128.337 C 84.646 128.711,84.583 128.720,84.179 128.404 C 83.763 128.078,83.749 128.085,84.051 128.473 C 84.238 128.712,84.732 129.914,85.148 131.143 C 90.230 146.156,108.173 144.498,110.145 128.833 C 110.335 127.319,109.985 126.105,109.283 125.849 C 108.760 125.659,106.581 124.226,106.103 123.759 C 105.747 123.410,104.559 121.097,104.290 120.232 C 104.154 119.792,104.316 119.372,104.908 118.630 C 105.996 117.264,107.343 114.637,107.343 113.880 C 107.343 113.540,107.448 113.222,107.575 113.173 C 107.852 113.067,106.057 107.659,105.458 106.793 C 105.177 106.387,104.665 106.139,103.884 106.033 C 103.243 105.945,102.644 105.696,102.541 105.474 C 102.439 105.254,102.186 104.713,101.979 104.272 C 100.782 101.728,96.105 101.278,91.589 103.273 M99.101 102.846 C 99.669 103.016,100.134 103.253,100.134 103.372 C 100.134 103.491,100.302 103.523,100.507 103.445 C 100.761 103.347,100.986 103.630,101.206 104.321 C 101.630 105.653,102.714 106.691,103.565 106.579 C 104.548 106.450,105.474 107.055,105.474 107.826 C 105.474 108.189,105.702 108.980,105.980 109.584 C 107.177 112.178,107.152 115.888,105.938 115.888 C 105.813 115.888,105.484 116.401,105.206 117.029 C 104.929 117.656,104.397 118.435,104.025 118.758 C 103.258 119.425,103.294 120.351,104.154 122.029 C 104.417 122.543,104.706 123.302,104.796 123.715 C 104.897 124.183,105.232 124.588,105.684 124.789 C 108.050 125.844,109.419 126.866,109.586 127.703 C 109.773 128.638,109.068 132.254,108.531 133.111 C 108.347 133.405,108.113 134.043,108.012 134.531 C 107.910 135.018,107.669 135.477,107.476 135.551 C 107.283 135.625,106.984 136.027,106.811 136.445 C 106.638 136.862,106.221 137.272,105.884 137.357 C 105.547 137.442,105.208 137.752,105.131 138.046 C 104.979 138.628,101.308 140.552,100.755 140.340 C 100.581 140.273,100.296 140.392,100.120 140.603 C 99.744 141.057,95.594 141.165,95.594 140.721 C 95.594 140.574,95.721 140.454,95.877 140.454 C 96.032 140.454,96.079 140.323,95.980 140.164 C 95.851 139.955,95.720 139.955,95.511 140.164 C 94.973 140.701,92.123 140.039,92.123 139.377 C 92.123 139.280,91.638 138.981,91.046 138.714 C 90.305 138.380,90.055 138.143,90.245 137.953 C 90.397 137.801,90.519 137.551,90.517 137.397 C 90.514 137.242,90.407 137.283,90.277 137.488 C 89.869 138.132,87.316 135.878,87.316 134.873 C 87.316 134.712,86.964 133.830,86.533 132.911 C 85.112 129.885,84.850 128.893,85.369 128.505 C 86.021 128.018,86.455 128.095,86.657 128.732 C 86.785 129.133,86.918 129.211,87.123 129.005 C 87.328 128.800,87.289 128.582,86.984 128.244 C 86.602 127.819,86.599 127.674,86.956 126.836 C 87.554 125.429,87.605 124.425,87.128 123.420 C 86.790 122.708,86.770 122.469,87.033 122.306 C 87.437 122.057,87.243 121.865,85.356 120.646 C 84.645 120.186,83.935 119.529,83.778 119.184 C 83.621 118.840,83.340 118.558,83.153 118.558 C 81.332 118.558,81.104 114.548,82.649 109.710 C 82.866 109.030,83.044 108.224,83.044 107.921 C 83.044 107.219,83.588 106.008,83.904 106.008 C 84.036 106.008,84.069 105.888,83.979 105.741 C 83.888 105.594,84.008 105.474,84.246 105.474 C 84.483 105.474,84.619 105.380,84.548 105.265 C 84.477 105.149,85.161 105.067,86.068 105.081 C 87.794 105.108,89.764 104.714,90.660 104.161 C 92.846 102.813,96.890 102.183,99.101 102.846 M83.720 111.427 C 83.606 111.690,83.587 111.980,83.679 112.072 C 83.950 112.343,84.168 111.962,84.044 111.436 C 83.933 110.970,83.919 110.969,83.720 111.427 M150.134 116.621 C 151.712 116.668,154.296 116.668,155.874 116.621 C 157.453 116.574,156.162 116.535,153.004 116.535 C 149.846 116.535,148.555 116.574,150.134 116.621 M160.686 116.615 C 161.166 116.675,161.887 116.674,162.288 116.613 C 162.689 116.552,162.296 116.503,161.415 116.505 C 160.534 116.506,160.206 116.556,160.686 116.615 M163.621 116.611 C 163.953 116.675,164.434 116.672,164.689 116.605 C 164.945 116.539,164.673 116.486,164.085 116.489 C 163.498 116.492,163.289 116.547,163.621 116.611 M166.422 116.618 C 167.119 116.673,168.261 116.673,168.959 116.618 C 169.656 116.563,169.085 116.518,167.690 116.518 C 166.295 116.518,165.724 116.563,166.422 116.618 M181.750 116.622 C 181.681 116.732,183.266 116.791,185.272 116.753 C 192.002 116.625,192.697 116.528,187.265 116.475 C 184.300 116.446,181.818 116.512,181.750 116.622 M209.697 116.622 C 212.166 116.666,216.131 116.666,218.508 116.622 C 220.885 116.577,218.865 116.541,214.019 116.541 C 209.172 116.542,207.227 116.578,209.697 116.622 M234.780 116.622 C 239.589 116.663,247.460 116.663,252.270 116.622 C 257.079 116.581,253.144 116.548,243.525 116.548 C 233.905 116.548,229.970 116.581,234.780 116.622 M277.437 116.615 C 290.857 116.801,301.407 116.804,301.294 116.622 C 301.226 116.512,294.658 116.449,286.700 116.483 C 278.741 116.516,274.573 116.576,277.437 116.615 M316.889 116.622 C 319.129 116.666,322.794 116.666,325.033 116.622 C 327.273 116.577,325.441 116.540,320.961 116.540 C 316.482 116.540,314.650 116.577,316.889 116.622 M237.984 127.020 C 238.241 127.087,238.662 127.087,238.919 127.020 C 239.176 126.953,238.965 126.898,238.451 126.898 C 237.937 126.898,237.727 126.953,237.984 127.020 M267.760 127.025 C 268.092 127.089,268.573 127.086,268.828 127.019 C 269.084 126.952,268.812 126.900,268.224 126.903 C 267.637 126.906,267.428 126.961,267.760 127.025 M240.495 127.618 C 242.006 128.304,243.197 129.621,243.620 131.072 C 243.814 131.737,244.142 132.327,244.350 132.383 C 244.603 132.451,244.628 132.412,244.426 132.263 C 244.261 132.142,244.047 131.677,243.950 131.231 C 243.568 129.471,241.171 127.089,239.801 127.109 C 239.573 127.112,239.885 127.341,240.495 127.618 M234.076 128.706 C 233.545 129.294,233.111 129.862,233.111 129.968 C 233.111 130.075,233.478 129.716,233.928 129.171 C 234.377 128.626,234.948 128.061,235.196 127.916 C 235.444 127.772,235.511 127.649,235.345 127.645 C 235.178 127.641,234.608 128.118,234.076 128.706 M264.363 128.336 C 263.547 129.023,262.598 130.510,262.828 130.741 C 262.893 130.805,263.098 130.489,263.285 130.038 C 263.472 129.586,264.057 128.861,264.584 128.427 C 265.111 127.992,265.464 127.637,265.368 127.637 C 265.273 127.637,264.820 127.952,264.363 128.336 M272.459 129.059 C 272.994 129.768,273.431 130.479,273.431 130.639 C 273.431 130.799,273.500 130.861,273.584 130.777 C 273.822 130.539,273.027 129.178,272.218 128.438 C 271.628 127.899,271.674 128.018,272.459 129.059 M107.457 129.090 C 107.254 129.899,107.568 130.536,107.906 130.002 C 108.221 129.506,108.204 128.438,107.882 128.438 C 107.738 128.438,107.547 128.731,107.457 129.090 M294.601 132.373 C 295.303 132.428,296.384 132.427,297.004 132.371 C 297.624 132.315,297.049 132.270,295.728 132.271 C 294.406 132.272,293.899 132.318,294.601 132.373 M243.823 133.823 C 243.806 134.068,243.723 134.489,243.638 134.758 C 243.492 135.221,243.500 135.222,243.790 134.771 C 243.957 134.510,244.040 134.089,243.974 133.837 C 243.866 133.423,243.851 133.422,243.823 133.823 M262.511 133.828 C 262.450 134.824,264.661 138.051,265.405 138.051 C 265.507 138.051,265.027 137.467,264.339 136.753 C 263.583 135.969,262.979 135.044,262.813 134.417 C 262.662 133.845,262.526 133.580,262.511 133.828 M295.263 133.700 C 295.596 133.764,296.076 133.762,296.332 133.695 C 296.587 133.628,296.315 133.576,295.728 133.579 C 295.140 133.582,294.931 133.636,295.263 133.700 M88.653 134.891 C 88.654 135.087,88.947 135.607,89.305 136.048 L 89.956 136.849 89.599 135.790 C 89.249 134.755,88.650 134.185,88.653 134.891 M242.103 136.745 C 241.395 137.463,240.880 138.051,240.959 138.051 C 241.226 138.051,243.009 136.380,243.277 135.878 C 243.638 135.204,243.581 135.246,242.103 136.745 M272.643 136.252 L 272.026 137.116 272.781 136.390 C 273.197 135.991,273.474 135.601,273.398 135.525 C 273.322 135.449,272.982 135.776,272.643 136.252 M234.179 136.849 C 234.677 137.363,235.145 137.784,235.218 137.784 C 235.292 137.784,234.944 137.363,234.446 136.849 C 233.948 136.335,233.480 135.915,233.407 135.915 C 233.333 135.915,233.681 136.335,234.179 136.849 M104.136 136.852 C 103.776 137.286,104.059 137.377,104.635 137.012 C 104.855 136.872,104.893 136.718,104.732 136.618 C 104.586 136.528,104.318 136.633,104.136 136.852 M102.270 138.051 C 101.946 138.260,101.984 138.310,102.470 138.314 C 102.800 138.316,103.071 138.198,103.071 138.051 C 103.071 137.716,102.787 137.716,102.270 138.051 M237.721 138.509 C 238.127 138.571,238.727 138.569,239.056 138.506 C 239.384 138.442,239.052 138.392,238.318 138.394 C 237.583 138.396,237.315 138.448,237.721 138.509 M267.356 138.509 C 267.760 138.570,268.421 138.570,268.825 138.509 C 269.229 138.448,268.899 138.398,268.091 138.398 C 267.283 138.398,266.953 138.448,267.356 138.509 M60.324 163.412 C 59.650 163.497,58.797 163.764,58.428 164.006 C 57.652 164.515,57.644 163.292,58.503 176.094 C 59.001 183.510,59.164 185.229,59.767 189.379 C 59.889 190.219,59.919 190.951,59.834 191.004 C 59.749 191.057,59.860 191.053,60.080 190.994 C 65.056 189.665,70.138 189.998,72.916 191.837 C 73.461 192.197,73.980 192.419,74.070 192.330 C 74.498 191.901,74.239 182.911,73.798 182.911 C 73.433 182.911,73.395 182.728,73.562 181.776 C 73.672 181.152,73.785 180.433,73.814 180.179 C 73.842 179.925,73.948 179.635,74.049 179.534 C 74.150 179.433,74.232 176.152,74.232 172.242 L 74.232 165.134 73.433 165.073 C 72.664 165.014,70.860 164.679,66.889 163.857 C 64.609 163.386,61.965 163.206,60.324 163.412 M66.756 164.394 C 68.004 164.615,69.326 164.840,69.693 164.895 C 70.060 164.950,71.142 165.162,72.096 165.365 L 73.832 165.736 73.832 172.254 C 73.832 178.474,73.803 178.841,73.208 180.287 L 72.584 181.803 73.229 182.957 C 73.809 183.996,73.879 184.462,73.924 187.583 C 73.980 191.538,73.795 192.157,72.827 191.248 C 72.480 190.921,71.963 190.653,71.678 190.653 C 71.394 190.652,70.817 190.471,70.397 190.252 C 69.459 189.763,63.294 189.691,61.966 190.154 C 60.824 190.552,60.400 190.127,60.194 188.378 C 60.108 187.650,59.996 186.721,59.945 186.315 C 59.893 185.908,59.766 184.195,59.662 182.508 C 59.558 180.820,59.378 179.439,59.262 179.439 C 59.145 179.439,59.057 179.049,59.065 178.571 C 59.073 178.094,58.949 175.721,58.789 173.298 C 58.628 170.874,58.493 167.977,58.488 166.858 L 58.478 164.825 59.880 164.289 C 61.449 163.689,62.898 163.711,66.756 164.394 M159.613 222.084 C 159.943 222.148,160.484 222.148,160.814 222.084 C 161.145 222.021,160.874 221.969,160.214 221.969 C 159.553 221.969,159.282 222.021,159.613 222.084 M132.363 224.766 C 131.832 225.905,131.276 227.377,131.126 228.037 C 130.827 229.359,130.769 234.041,131.060 233.344 C 131.224 232.952,131.426 232.972,133.111 233.543 C 134.139 233.892,135.842 234.462,136.896 234.811 L 138.811 235.444 138.962 234.846 C 139.044 234.517,139.587 233.818,140.167 233.294 C 142.559 231.133,142.582 228.201,140.225 226.069 C 139.435 225.355,139.010 223.934,139.379 223.244 C 139.666 222.707,139.614 222.697,136.500 222.697 L 133.329 222.697 132.363 224.766 M138.675 223.698 C 138.745 223.955,138.870 224.466,138.954 224.833 C 139.086 225.416,139.384 225.854,140.729 227.440 C 140.887 227.625,140.931 227.914,140.827 228.082 C 140.718 228.259,140.756 228.314,140.919 228.214 C 141.258 228.004,141.522 228.619,141.522 229.620 C 141.522 230.679,140.818 231.941,139.792 232.724 C 139.303 233.097,138.830 233.697,138.739 234.057 C 138.553 234.797,138.013 234.910,137.517 234.312 C 137.334 234.092,136.989 233.910,136.750 233.908 C 136.369 233.904,136.365 233.868,136.716 233.616 C 137.037 233.385,137.010 233.366,136.582 233.522 C 135.743 233.827,135.162 233.722,134.406 233.127 C 134.021 232.824,133.341 232.577,132.896 232.577 C 130.674 232.577,130.612 230.299,132.698 225.300 L 133.561 223.231 136.055 223.231 C 138.204 223.231,138.566 223.296,138.675 223.698 M81.634 226.065 C 81.528 226.171,81.441 226.508,81.440 226.814 C 81.439 227.119,81.258 227.716,81.038 228.138 C 80.770 228.651,80.749 228.819,80.973 228.643 C 81.157 228.498,82.082 228.355,83.028 228.326 C 83.974 228.297,84.835 228.219,84.942 228.153 C 85.048 228.088,85.185 228.125,85.247 228.236 C 85.309 228.347,85.319 228.278,85.270 228.082 C 85.221 227.887,85.180 227.501,85.180 227.225 C 85.180 226.738,84.895 226.611,82.502 226.035 C 82.130 225.946,81.740 225.959,81.634 226.065 M83.892 226.748 C 85.510 227.233,85.168 227.883,83.242 227.984 C 81.653 228.067,81.466 227.913,81.871 226.858 C 82.064 226.354,82.498 226.330,83.892 226.748 M156.275 239.436 C 156.532 239.504,156.953 239.504,157.210 239.436 C 157.467 239.369,157.256 239.314,156.742 239.314 C 156.228 239.314,156.018 239.369,156.275 239.436 M147.597 239.708 C 147.927 239.771,148.468 239.771,148.798 239.708 C 149.129 239.644,148.858 239.592,148.198 239.592 C 147.537 239.592,147.266 239.644,147.597 239.708 M152.403 239.708 C 152.734 239.771,153.274 239.771,153.605 239.708 C 153.935 239.644,153.665 239.592,153.004 239.592 C 152.343 239.592,152.073 239.644,152.403 239.708 " stroke="none" fill="#efc2ce" fill-rule="evenodd"></path><path id="path7" d="M131.286 63.462 C 131.008 63.740,131.073 76.636,131.353 76.636 C 131.488 76.636,131.638 76.515,131.687 76.368 C 131.746 76.189,132.086 76.189,132.709 76.368 C 133.885 76.705,144.814 76.697,144.059 76.359 C 143.713 76.205,144.582 76.140,146.516 76.178 C 149.294 76.231,149.520 76.197,149.691 75.701 C 149.853 75.231,149.889 75.254,149.989 75.901 C 150.051 76.305,150.207 76.636,150.335 76.636 C 150.600 76.636,150.704 64.398,150.445 63.724 C 150.270 63.268,131.733 63.016,131.286 63.462 M166.477 63.620 C 166.404 63.808,166.377 66.844,166.417 70.366 L 166.489 76.769 176.101 76.769 L 185.714 76.769 185.714 70.093 L 185.714 63.418 176.161 63.348 C 168.585 63.292,166.581 63.348,166.477 63.620 M150.200 63.818 C 150.309 63.995,147.125 64.065,140.803 64.024 L 131.242 63.962 140.587 63.818 C 145.728 63.739,149.956 63.647,149.984 63.613 C 150.012 63.579,150.110 63.672,150.200 63.818 M185.447 70.093 L 185.447 76.502 176.035 76.572 L 166.622 76.642 166.622 70.093 L 166.622 63.545 176.035 63.615 L 185.447 63.685 185.447 70.093 M149.989 65.751 C 149.925 66.083,149.870 65.874,149.867 65.287 C 149.864 64.700,149.916 64.428,149.983 64.683 C 150.050 64.938,150.052 65.419,149.989 65.751 M149.996 73.097 C 149.941 73.795,149.896 73.224,149.896 71.829 C 149.896 70.434,149.941 69.863,149.996 70.561 C 150.051 71.258,150.051 72.400,149.996 73.097 M137.450 76.298 C 136.752 76.353,135.611 76.353,134.913 76.298 C 134.216 76.243,134.786 76.198,136.182 76.198 C 137.577 76.198,138.148 76.243,137.450 76.298 M173.431 93.769 C 172.063 94.478,171.470 95.007,170.981 95.952 C 170.409 97.059,170.732 97.116,171.377 96.022 C 174.014 91.552,181.544 93.603,181.568 98.798 C 181.596 104.798,173.718 106.767,171.057 101.426 C 170.312 99.932,170.107 99.997,170.746 101.525 C 172.594 105.949,179.298 105.843,181.335 101.358 C 183.538 96.508,178.140 91.326,173.431 93.769 M111.959 98.665 C 111.961 99.399,112.013 99.668,112.074 99.262 C 112.135 98.856,112.134 98.255,112.070 97.927 C 112.007 97.598,111.957 97.931,111.959 98.665 M161.354 104.139 C 161.354 104.800,161.407 105.070,161.470 104.740 C 161.534 104.409,161.534 103.868,161.470 103.538 C 161.407 103.208,161.354 103.478,161.354 104.139 M138.593 110.703 C 137.417 111.213,136.680 111.875,136.897 112.226 C 136.989 112.377,136.935 112.418,136.775 112.320 C 136.616 112.221,136.297 112.410,136.066 112.739 C 135.463 113.601,135.561 114.011,136.182 113.218 C 136.469 112.850,136.704 112.670,136.704 112.817 C 136.704 113.186,135.665 114.483,135.635 114.152 C 135.577 113.533,135.149 115.034,135.132 115.915 C 135.005 122.446,145.066 123.846,146.462 117.491 C 146.555 117.068,146.833 116.668,147.080 116.603 C 147.397 116.519,147.353 116.475,146.929 116.453 C 146.550 116.433,146.328 116.575,146.328 116.838 C 146.328 117.067,146.220 117.187,146.087 117.105 C 145.948 117.019,145.976 116.673,146.153 116.290 L 146.462 115.625 153.405 115.561 L 160.347 115.497 153.551 115.421 C 148.527 115.364,146.700 115.259,146.546 115.015 C 146.399 114.784,146.335 114.826,146.333 115.154 C 146.330 115.411,146.208 115.621,146.061 115.621 C 145.722 115.621,145.725 115.448,146.076 114.792 C 147.406 112.307,141.869 109.282,138.593 110.703 M173.674 110.646 C 172.388 111.228,170.897 112.932,170.556 114.210 L 170.250 115.354 166.792 115.354 L 163.335 115.354 163.844 114.753 L 164.352 114.152 163.745 114.667 C 162.759 115.503,163.397 115.669,167.234 115.575 C 169.221 115.527,170.731 115.558,170.590 115.645 C 169.779 116.143,170.773 118.946,172.226 120.259 C 174.495 122.309,177.613 122.232,179.890 120.070 C 181.013 119.003,182.197 116.422,181.563 116.422 C 181.423 116.422,181.308 116.245,181.308 116.029 C 181.308 115.813,181.015 114.972,180.656 114.160 C 180.296 113.348,180.103 112.684,180.225 112.684 C 180.478 112.684,181.208 114.153,181.352 114.953 C 181.445 115.466,181.688 115.490,187.387 115.559 C 192.420 115.620,193.324 115.691,193.324 116.026 C 193.324 116.244,193.114 116.424,192.857 116.426 C 192.583 116.428,192.505 116.511,192.668 116.626 C 192.821 116.734,193.112 117.337,193.314 117.965 C 194.196 120.702,197.394 122.298,200.353 121.476 C 202.137 120.981,204.606 118.293,203.759 117.769 C 203.561 117.648,203.492 117.405,203.604 117.224 C 203.759 116.974,203.858 116.983,204.035 117.261 C 204.274 117.640,204.390 117.103,204.286 116.088 C 204.241 115.646,205.740 115.621,232.405 115.621 C 247.896 115.621,260.761 115.548,260.993 115.459 C 261.292 115.344,261.415 115.454,261.415 115.837 C 261.415 116.134,261.275 116.424,261.104 116.481 C 260.868 116.560,260.870 116.807,261.113 117.505 C 262.568 121.682,267.257 123.069,270.434 120.261 C 270.981 119.777,271.343 119.376,271.238 119.370 C 271.133 119.364,270.629 119.726,270.118 120.175 C 269.541 120.681,268.804 121.035,268.173 121.108 L 267.156 121.226 268.091 120.947 C 268.605 120.793,269.236 120.420,269.493 120.117 C 269.750 119.815,269.960 119.670,269.961 119.797 C 269.961 119.923,270.336 119.606,270.794 119.092 C 271.251 118.578,271.555 118.368,271.469 118.625 C 271.181 119.481,271.583 119.106,271.986 118.143 C 272.221 117.581,272.317 116.848,272.222 116.341 L 272.062 115.487 286.899 115.558 L 301.736 115.630 301.719 114.891 C 301.702 114.182,301.692 114.177,301.460 114.753 L 301.219 115.354 286.791 115.354 C 273.939 115.354,272.363 115.309,272.363 114.940 C 272.363 114.290,271.580 112.898,270.679 111.949 C 269.910 111.139,269.191 110.752,269.558 111.345 C 269.653 111.500,269.539 111.540,269.284 111.442 C 268.943 111.311,268.923 111.227,269.194 111.060 C 269.823 110.671,268.050 110.229,266.294 110.336 C 264.490 110.447,262.830 111.351,261.980 112.684 C 261.580 113.311,261.583 113.329,262.019 112.985 C 262.554 112.563,262.610 112.749,262.188 113.538 C 261.971 113.943,261.837 114.001,261.685 113.756 C 261.548 113.534,261.370 113.747,261.159 114.387 L 260.840 115.354 232.556 115.354 C 207.862 115.354,204.272 115.304,204.272 114.962 C 204.272 114.723,204.116 114.630,203.872 114.723 C 203.602 114.827,203.471 114.711,203.471 114.369 C 203.471 113.277,200.908 111.081,199.633 111.081 C 199.265 111.081,198.886 110.956,198.792 110.804 C 198.624 110.532,198.738 110.541,200.622 110.941 C 201.354 111.097,203.008 112.562,203.656 113.628 C 203.831 113.917,203.981 114.020,203.990 113.858 C 204.024 113.210,202.421 111.446,201.284 110.881 C 198.044 109.271,193.786 111.152,193.164 114.468 L 192.998 115.354 187.287 115.354 L 181.575 115.354 181.571 114.753 C 181.549 111.793,176.706 109.274,173.674 110.646 M305.207 110.465 C 303.476 111.079,301.401 113.427,301.976 114.120 C 302.264 114.467,301.909 116.089,301.473 116.422 C 301.377 116.495,301.384 116.856,301.490 117.223 L 301.682 117.891 301.730 117.223 C 301.758 116.828,301.832 116.719,301.910 116.956 C 302.251 117.993,302.724 118.752,303.447 119.426 C 303.880 119.830,304.099 120.160,303.933 120.160 C 303.767 120.160,303.509 119.950,303.359 119.693 C 303.209 119.436,303.083 119.329,303.079 119.455 C 303.074 119.582,302.834 119.402,302.546 119.055 C 302.257 118.708,302.016 118.514,302.012 118.624 C 302.007 118.734,302.409 119.275,302.906 119.826 C 303.403 120.377,303.869 121.068,303.943 121.362 C 304.040 121.748,304.085 121.677,304.108 121.108 C 304.132 120.495,304.210 120.392,304.459 120.641 C 304.636 120.817,305.266 120.981,305.861 121.006 L 306.943 121.051 305.941 121.156 C 304.412 121.316,304.749 121.619,306.558 121.712 C 309.294 121.852,311.797 120.172,312.542 117.694 C 312.899 116.508,312.895 116.486,312.328 116.609 C 311.856 116.712,311.823 116.681,312.150 116.445 C 312.506 116.187,312.506 116.126,312.150 115.892 C 311.659 115.570,310.557 115.604,321.080 115.621 C 329.864 115.635,330.265 115.669,329.388 116.310 C 329.103 116.519,329.013 116.689,329.188 116.689 C 329.363 116.689,329.506 116.969,329.506 117.311 C 329.506 119.364,332.379 121.622,334.980 121.612 C 337.055 121.605,340.294 119.921,339.353 119.339 C 339.136 119.204,339.180 118.969,339.509 118.520 C 339.968 117.893,339.969 117.893,339.793 118.491 C 339.518 119.428,339.903 119.197,340.334 118.166 C 341.881 114.463,339.041 110.280,334.980 110.280 C 333.773 110.280,331.686 110.948,331.979 111.240 C 332.062 111.323,332.373 111.262,332.670 111.103 C 332.967 110.944,333.487 110.822,333.828 110.832 C 334.236 110.844,334.051 110.973,333.282 111.213 C 332.642 111.413,331.967 111.518,331.783 111.448 C 331.318 111.269,330.185 112.687,329.629 114.142 L 329.166 115.354 320.980 115.354 L 312.794 115.354 312.488 114.210 C 311.741 111.417,307.978 109.481,305.207 110.465 M74.027 111.348 C 74.027 111.862,74.082 112.073,74.149 111.816 C 74.217 111.559,74.217 111.138,74.149 110.881 C 74.082 110.624,74.027 110.834,74.027 111.348 M143.710 111.347 C 144.526 111.733,144.914 112.417,144.317 112.417 C 144.102 112.417,143.925 112.248,143.925 112.042 C 143.925 111.659,142.626 111.081,141.765 111.081 C 141.502 111.081,141.223 110.978,141.144 110.852 C 140.961 110.555,142.776 110.905,143.710 111.347 M308.545 110.814 C 308.995 111.008,308.945 111.047,308.227 111.063 C 307.758 111.073,307.300 110.961,307.210 110.814 C 307.012 110.494,307.799 110.494,308.545 110.814 M139.519 111.062 C 139.079 111.169,138.433 111.409,138.085 111.596 C 137.640 111.835,137.510 111.843,137.645 111.623 C 137.906 111.201,138.839 110.846,139.653 110.859 C 140.251 110.868,140.237 110.889,139.519 111.062 M174.539 111.089 C 172.903 111.579,171.923 112.480,172.088 113.342 C 172.233 114.099,172.221 114.111,171.820 113.609 C 171.413 113.099,171.406 113.102,171.577 113.718 C 171.696 114.149,171.658 114.294,171.457 114.170 C 170.378 113.503,172.970 110.784,174.633 110.838 C 175.281 110.860,175.278 110.867,174.539 111.089 M197.063 111.128 C 196.549 111.274,195.918 111.583,195.661 111.813 C 195.351 112.091,195.194 112.124,195.194 111.911 C 195.194 111.532,196.696 110.829,197.463 110.849 C 197.757 110.856,197.577 110.982,197.063 111.128 M265.483 111.003 C 265.129 111.072,264.954 111.241,265.060 111.413 C 265.178 111.604,265.079 111.644,264.777 111.528 C 264.296 111.344,263.851 111.656,263.374 112.513 C 263.123 112.961,263.081 112.967,262.927 112.565 C 262.827 112.305,262.865 112.189,263.020 112.285 C 263.166 112.375,263.284 112.265,263.284 112.040 C 263.284 111.524,264.545 110.828,265.421 110.861 C 266.049 110.886,266.053 110.894,265.483 111.003 M338.412 111.816 C 339.091 112.366,339.545 112.851,339.421 112.893 C 339.297 112.935,338.805 112.605,338.328 112.159 C 337.851 111.714,337.083 111.240,336.621 111.106 C 335.824 110.875,335.817 110.861,336.479 110.839 C 336.912 110.824,337.643 111.193,338.412 111.816 M179.054 111.460 C 179.339 111.668,179.512 111.898,179.439 111.971 C 179.366 112.044,179.022 111.874,178.675 111.593 C 177.950 111.005,178.276 110.891,179.054 111.460 M304.940 111.271 C 304.720 111.352,304.329 111.601,304.072 111.825 C 303.798 112.064,303.605 112.110,303.605 111.937 C 303.605 111.579,304.390 111.093,304.940 111.111 C 305.296 111.122,305.296 111.140,304.940 111.271 M310.547 111.749 C 310.892 112.116,311.033 112.417,310.861 112.417 C 310.689 112.417,310.547 112.296,310.547 112.150 C 310.547 112.003,310.360 111.883,310.131 111.883 C 309.895 111.883,309.794 111.755,309.898 111.587 C 310.022 111.385,309.889 111.352,309.479 111.482 C 309.070 111.612,308.937 111.578,309.061 111.377 C 309.354 110.902,309.874 111.033,310.547 111.749 M330.998 113.134 C 330.615 113.516,330.194 114.202,330.062 114.658 C 329.862 115.348,329.817 115.383,329.797 114.869 C 329.759 113.898,331.368 111.462,331.596 112.145 C 331.650 112.306,331.381 112.751,330.998 113.134 M194.771 112.779 C 194.599 113.226,194.126 113.391,194.126 113.004 C 194.126 112.744,194.721 112.122,194.848 112.249 C 194.898 112.299,194.863 112.538,194.771 112.779 M303.241 112.485 C 303.163 113.015,302.300 114.138,302.113 113.951 C 302.020 113.858,302.206 113.415,302.526 112.966 C 303.159 112.076,303.317 111.970,303.241 112.485 M271.566 113.493 C 272.033 114.621,271.794 114.692,271.234 113.591 C 270.980 113.092,270.875 112.684,271.001 112.684 C 271.127 112.684,271.381 113.048,271.566 113.493 M312.130 114.286 C 312.129 114.506,311.953 114.282,311.739 113.788 C 311.524 113.294,311.353 112.813,311.358 112.720 C 311.377 112.372,312.131 113.901,312.130 114.286 M146.043 114.419 C 146.044 114.566,145.868 114.453,145.652 114.168 C 145.437 113.883,145.265 113.462,145.270 113.233 C 145.280 112.780,146.042 113.948,146.043 114.419 M162.483 114.386 C 161.939 114.916,161.860 115.072,162.238 114.873 C 162.820 114.569,163.570 113.786,163.389 113.673 C 163.332 113.637,162.924 113.958,162.483 114.386 M193.789 114.887 C 193.750 115.249,193.857 115.461,194.059 115.421 C 194.242 115.384,194.393 115.534,194.393 115.754 C 194.393 116.256,194.194 116.262,193.706 115.773 C 193.301 115.369,193.207 114.759,193.502 114.464 C 193.797 114.169,193.855 114.256,193.789 114.887 M135.572 116.618 C 135.511 117.024,135.459 116.756,135.457 116.021 C 135.455 115.287,135.505 114.955,135.568 115.283 C 135.632 115.612,135.633 116.213,135.572 116.618 M136.802 116.796 C 136.969 117.231,136.745 117.540,136.411 117.333 C 136.108 117.146,136.115 116.422,136.420 116.422 C 136.551 116.422,136.723 116.590,136.802 116.796 M225.768 116.956 C 226.304 117.549,226.673 117.697,226.203 117.132 C 226.040 116.935,225.985 116.694,226.082 116.598 C 226.178 116.501,226.038 116.422,225.771 116.422 C 225.301 116.422,225.301 116.440,225.768 116.956 M303.868 117.423 C 303.870 117.607,303.752 117.757,303.605 117.757 C 303.458 117.757,303.340 117.427,303.342 117.023 C 303.346 116.271,303.858 116.661,303.868 117.423 M310.699 116.803 C 311.162 117.265,310.923 118.027,310.319 118.016 C 309.946 118.008,309.958 117.948,310.398 117.615 C 310.683 117.399,310.786 117.223,310.627 117.223 C 310.468 117.223,310.268 117.043,310.184 116.822 C 309.990 116.318,310.206 116.309,310.699 116.803 M330.164 116.704 C 329.814 117.270,330.348 118.325,331.644 119.628 C 332.374 120.361,332.870 120.961,332.747 120.961 C 332.278 120.961,330.054 118.429,329.898 117.716 C 329.746 117.024,329.889 116.422,330.205 116.422 C 330.279 116.422,330.260 116.549,330.164 116.704 M180.808 118.493 C 180.190 119.703,178.780 120.868,177.673 121.082 C 176.966 121.219,176.980 121.196,177.837 120.806 C 178.913 120.317,180.240 119.140,180.240 118.674 C 180.240 118.499,180.421 118.207,180.641 118.024 C 180.861 117.841,181.055 117.436,181.072 117.124 C 181.095 116.703,181.134 116.672,181.222 117.003 C 181.287 117.248,181.100 117.919,180.808 118.493 M262.019 118.234 C 262.183 118.569,262.474 118.783,262.667 118.709 C 262.860 118.635,263.018 118.721,263.019 118.900 C 263.019 119.079,263.386 119.616,263.833 120.093 C 264.815 121.141,264.642 121.210,263.404 120.265 C 262.349 119.460,261.406 118.051,261.436 117.325 C 261.452 116.960,261.494 116.932,261.589 117.223 C 261.662 117.443,261.855 117.898,262.019 118.234 M271.829 117.637 C 271.829 117.816,271.604 118.021,271.329 118.093 C 270.958 118.190,270.860 118.106,270.948 117.768 C 271.083 117.251,271.829 117.140,271.829 117.637 M136.506 118.122 C 136.679 118.015,136.722 118.065,136.612 118.242 C 136.320 118.715,137.234 119.873,138.073 120.094 C 138.618 120.237,138.771 120.395,138.612 120.651 C 138.328 121.110,136.660 119.704,136.058 118.498 C 135.599 117.577,135.513 117.098,135.939 117.829 C 136.091 118.089,136.346 118.221,136.506 118.122 M194.648 119.485 C 194.667 119.918,193.943 118.738,193.752 118.024 C 193.618 117.526,193.708 117.593,194.105 118.291 C 194.398 118.805,194.642 119.342,194.648 119.485 M145.649 118.358 C 145.417 119.125,144.267 120.366,143.338 120.852 C 142.534 121.272,140.852 121.391,141.498 120.982 C 141.705 120.851,142.038 120.807,142.239 120.884 C 142.793 121.096,144.736 119.623,145.209 118.633 C 145.690 117.623,145.913 117.483,145.649 118.358 M172.337 119.874 C 172.118 120.092,171.162 118.847,171.162 118.343 C 171.162 118.085,171.421 118.272,171.826 118.821 C 172.191 119.316,172.421 119.790,172.337 119.874 M203.142 118.989 C 202.967 119.373,202.778 119.549,202.722 119.380 C 202.666 119.212,202.766 118.898,202.945 118.683 C 203.429 118.099,203.498 118.207,203.142 118.989 M174.486 119.605 C 174.569 119.740,174.457 120.030,174.237 120.251 C 173.881 120.607,173.918 120.684,174.568 120.942 C 175.273 121.223,175.265 121.228,174.369 121.091 C 173.857 121.013,173.257 120.765,173.034 120.540 C 172.673 120.175,172.680 120.150,173.097 120.308 C 173.450 120.441,173.565 120.347,173.565 119.922 C 173.565 119.359,174.199 119.140,174.486 119.605 M195.508 119.974 C 195.702 120.166,196.342 120.531,196.929 120.786 L 197.997 121.249 197.063 121.099 C 196.298 120.976,194.390 119.626,194.980 119.626 C 195.077 119.626,195.314 119.783,195.508 119.974 M310.274 120.287 C 309.910 120.651,309.192 121.018,308.678 121.102 L 307.744 121.257 308.678 120.799 C 309.192 120.547,309.697 120.330,309.800 120.317 C 309.903 120.304,310.137 120.144,310.320 119.960 C 310.504 119.776,310.718 119.626,310.795 119.626 C 310.872 119.626,310.638 119.924,310.274 120.287 M201.736 120.427 C 201.470 120.721,201.077 120.961,200.864 120.961 C 200.605 120.961,200.686 120.785,201.105 120.436 C 201.929 119.750,202.354 119.744,201.736 120.427 M338.318 120.151 C 338.318 120.624,337.227 121.045,336.887 120.703 C 336.658 120.472,336.687 120.436,337.007 120.557 C 337.240 120.646,337.585 120.533,337.774 120.306 C 338.169 119.830,338.318 119.787,338.318 120.151 M111.148 126.226 C 111.552 126.287,112.213 126.287,112.617 126.226 C 113.021 126.165,112.690 126.115,111.883 126.115 C 111.075 126.115,110.744 126.165,111.148 126.226 M114.686 127.059 C 115.421 127.470,116.792 128.309,117.735 128.925 C 119.193 129.877,120.212 130.279,123.678 131.270 C 123.924 131.341,124.750 131.994,125.513 132.722 C 126.276 133.450,127.014 134.045,127.154 134.045 C 127.293 134.045,126.768 133.449,125.987 132.719 C 124.557 131.384,123.683 130.947,120.936 130.193 C 120.029 129.944,118.420 129.099,116.839 128.042 C 115.408 127.085,114.037 126.304,113.794 126.307 C 113.550 126.309,113.952 126.648,114.686 127.059 M82.243 128.192 C 81.928 128.413,81.969 128.438,82.433 128.307 C 82.758 128.216,83.299 128.288,83.635 128.467 C 84.190 128.763,84.212 128.752,83.879 128.348 C 83.462 127.842,82.829 127.782,82.243 128.192 M79.812 130.025 C 78.528 131.246,77.847 131.683,76.851 131.922 C 75.834 132.166,75.353 132.481,74.600 133.401 C 73.611 134.607,72.510 135.109,70.846 135.112 C 70.184 135.113,69.869 135.305,69.422 135.981 L 68.848 136.849 69.481 136.115 C 69.961 135.557,70.354 135.381,71.113 135.381 C 72.574 135.381,73.779 134.780,74.755 133.565 C 75.372 132.798,75.894 132.442,76.593 132.312 C 77.889 132.072,78.896 131.421,80.497 129.789 C 82.327 127.923,81.847 128.089,79.812 130.025 M304.539 130.474 C 304.059 130.882,303.961 131.045,304.294 130.879 C 304.784 130.636,305.702 129.757,305.440 129.783 C 305.385 129.788,304.980 130.099,304.539 130.474 M248.932 132.376 C 251.392 132.420,255.417 132.420,257.877 132.376 C 260.337 132.332,258.324 132.296,253.405 132.296 C 248.485 132.296,246.472 132.332,248.932 132.376 M278.972 132.376 C 281.652 132.420,286.038 132.420,288.718 132.376 C 291.399 132.333,289.206 132.297,283.845 132.297 C 278.485 132.297,276.292 132.333,278.972 132.376 M298.331 132.360 C 298.588 132.427,299.009 132.427,299.266 132.360 C 299.523 132.293,299.312 132.238,298.798 132.238 C 298.284 132.238,298.074 132.293,298.331 132.360 M248.932 133.444 C 251.392 133.488,255.417 133.488,257.877 133.444 C 260.337 133.400,258.324 133.364,253.405 133.364 C 248.485 133.364,246.472 133.400,248.932 133.444 M279.257 133.444 C 282.093 133.488,286.659 133.488,289.403 133.444 C 292.147 133.401,289.826 133.365,284.246 133.365 C 278.665 133.366,276.420 133.401,279.257 133.444 M297.931 133.433 C 298.261 133.496,298.802 133.496,299.132 133.433 C 299.463 133.369,299.192 133.317,298.531 133.317 C 297.870 133.317,297.600 133.369,297.931 133.433 M129.812 134.851 C 130.348 135.134,131.279 135.939,131.880 136.641 C 132.482 137.343,132.975 137.824,132.976 137.711 C 132.981 137.031,129.797 134.283,129.052 134.324 C 128.935 134.331,129.277 134.568,129.812 134.851 M65.403 137.439 C 64.556 138.152,63.557 139.940,63.570 140.721 C 63.573 140.941,63.802 140.544,64.078 139.838 C 64.673 138.314,65.020 137.861,66.088 137.207 C 66.529 136.938,66.748 136.717,66.576 136.717 C 66.404 136.716,65.876 137.041,65.403 137.439 M133.430 138.982 C 133.674 139.494,133.921 139.866,133.979 139.808 C 134.102 139.686,133.291 138.051,133.108 138.051 C 133.041 138.051,133.186 138.470,133.430 138.982 M134.612 141.656 C 134.601 141.802,134.828 142.764,135.116 143.792 C 135.405 144.820,135.581 145.232,135.508 144.707 C 135.362 143.667,134.645 141.224,134.612 141.656 M62.200 143.295 C 61.908 143.977,61.715 144.581,61.771 144.637 C 61.827 144.693,62.124 144.135,62.430 143.397 C 62.737 142.660,62.930 142.056,62.860 142.056 C 62.789 142.056,62.492 142.614,62.200 143.295 M61.045 146.226 C 60.809 146.919,60.662 147.533,60.718 147.590 C 60.775 147.646,61.015 147.125,61.251 146.431 C 61.487 145.737,61.634 145.124,61.578 145.067 C 61.521 145.011,61.282 145.532,61.045 146.226 M135.817 146.996 C 135.893 147.730,136.120 149.112,136.321 150.067 C 136.642 151.594,136.669 151.642,136.547 150.467 C 136.470 149.733,136.243 148.351,136.042 147.397 C 135.721 145.870,135.694 145.821,135.817 146.996 M59.333 151.919 C 59.157 152.685,59.022 153.513,59.034 153.759 C 59.046 154.004,59.229 153.492,59.440 152.619 C 59.651 151.747,59.786 150.919,59.739 150.780 C 59.693 150.641,59.510 151.153,59.333 151.919 M136.801 152.336 C 136.851 152.828,137.057 152.872,139.389 152.885 L 141.923 152.899 139.470 152.809 C 137.434 152.733,136.995 152.640,136.882 152.260 C 136.781 151.919,136.760 151.939,136.801 152.336 M58.521 156.286 C 58.351 157.430,58.224 158.812,58.241 159.357 C 58.257 159.901,58.435 159.085,58.636 157.543 C 59.064 154.251,58.974 153.255,58.521 156.286 M144.319 174.633 C 144.319 185.280,144.352 189.636,144.392 184.312 C 144.433 178.989,144.433 170.277,144.392 164.953 C 144.352 159.630,144.319 163.985,144.319 174.633 M57.445 162.064 C 56.925 163.108,56.867 163.437,57.121 163.910 C 57.546 164.706,57.720 164.633,57.400 163.793 C 57.191 163.243,57.257 162.887,57.721 162.061 C 58.043 161.489,58.255 160.970,58.192 160.907 C 58.129 160.845,57.793 161.365,57.445 162.064 M55.793 193.525 L 54.873 194.526 55.874 193.606 C 56.807 192.749,56.999 192.523,56.795 192.523 C 56.750 192.523,56.299 192.974,55.793 193.525 M151.936 195.250 C 152.009 195.322,152.487 195.523,152.998 195.695 C 153.509 195.868,153.809 195.894,153.665 195.754 C 153.522 195.613,153.044 195.413,152.603 195.308 C 152.163 195.204,151.862 195.178,151.936 195.250 M158.344 198.531 C 158.843 199.045,159.310 199.466,159.384 199.466 C 159.457 199.466,159.110 199.045,158.611 198.531 C 158.113 198.017,157.646 197.597,157.572 197.597 C 157.499 197.597,157.846 198.017,158.344 198.531 M50.584 217.156 L 49.800 218.024 50.668 217.240 C 51.476 216.509,51.658 216.288,51.452 216.288 C 51.406 216.288,51.015 216.679,50.584 217.156 M175.300 224.299 C 175.874 224.887,176.403 225.367,176.477 225.367 C 176.550 225.367,176.141 224.887,175.567 224.299 C 174.994 223.712,174.464 223.231,174.391 223.231 C 174.318 223.231,174.727 223.712,175.300 224.299 M46.524 225.634 C 46.524 226.148,46.579 226.358,46.646 226.101 C 46.713 225.844,46.713 225.424,46.646 225.167 C 46.579 224.910,46.524 225.120,46.524 225.634 M78.888 231.041 L 78.104 231.909 78.972 231.125 C 79.781 230.394,79.963 230.174,79.756 230.174 C 79.710 230.174,79.320 230.564,78.888 231.041 M103.672 231.426 C 103.929 231.493,104.349 231.493,104.606 231.426 C 104.863 231.359,104.653 231.304,104.139 231.304 C 103.625 231.304,103.415 231.359,103.672 231.426 M178.967 233.378 C 178.967 233.892,179.022 234.102,179.089 233.845 C 179.156 233.588,179.156 233.168,179.089 232.911 C 179.022 232.654,178.967 232.864,178.967 233.378 M63.225 233.040 C 63.853 233.096,64.814 233.095,65.361 233.038 C 65.908 232.981,65.394 232.934,64.219 232.935 C 63.044 232.936,62.597 232.983,63.225 233.040 M178.973 235.381 C 178.976 235.968,179.030 236.177,179.094 235.845 C 179.158 235.513,179.156 235.032,179.089 234.777 C 179.022 234.521,178.970 234.793,178.973 235.381 M130.638 236.044 C 130.430 236.378,129.933 236.586,129.180 236.653 L 128.037 236.756 129.131 236.802 C 130.132 236.845,131.472 236.056,131.074 235.658 C 131.008 235.592,130.812 235.766,130.638 236.044 M149.866 239.711 C 150.270 239.772,150.931 239.772,151.335 239.711 C 151.739 239.649,151.409 239.599,150.601 239.599 C 149.793 239.599,149.463 239.649,149.866 239.711 M169.100 242.119 C 169.802 242.174,170.884 242.174,171.503 242.118 C 172.123 242.062,171.549 242.017,170.227 242.017 C 168.905 242.018,168.398 242.064,169.100 242.119 " stroke="none" fill="#aacdc5" fill-rule="evenodd"></path><path id="path8" d="M149.266 76.257 L 148.598 76.628 149.332 76.632 C 149.809 76.634,150.067 76.495,150.067 76.235 C 150.067 76.015,150.037 75.846,150.000 75.861 C 149.963 75.875,149.633 76.053,149.266 76.257 M131.642 76.363 C 131.642 76.513,132.023 76.636,132.488 76.636 C 133.460 76.636,133.425 76.519,132.377 76.267 C 131.941 76.163,131.642 76.202,131.642 76.363 M78.621 92.190 L 77.837 93.057 78.705 92.273 C 79.182 91.842,79.573 91.451,79.573 91.405 C 79.573 91.199,79.352 91.381,78.621 92.190 M108.945 92.206 C 108.945 92.252,109.336 92.643,109.813 93.074 L 110.681 93.858 109.897 92.991 C 109.166 92.182,108.945 92.000,108.945 92.206 M164.820 99.731 C 164.342 99.938,163.952 100.167,163.952 100.241 C 163.952 100.369,165.840 99.652,166.066 99.438 C 166.299 99.217,165.653 99.369,164.820 99.731 M168.825 99.517 C 169.082 99.584,169.503 99.584,169.760 99.517 C 170.017 99.449,169.806 99.394,169.292 99.394 C 168.778 99.394,168.568 99.449,168.825 99.517 M163.914 101.055 C 163.384 101.415,162.874 101.925,162.780 102.190 C 162.647 102.566,162.712 102.545,163.081 102.094 C 163.340 101.778,163.972 101.268,164.486 100.961 C 165.000 100.654,165.298 100.402,165.149 100.402 C 164.999 100.401,164.444 100.695,163.914 101.055 M161.599 104.139 C 161.584 104.947,161.749 105.968,161.965 106.409 C 162.181 106.849,162.280 106.969,162.185 106.676 C 162.090 106.382,161.925 105.360,161.819 104.406 L 161.625 102.670 161.599 104.139 M85.919 104.599 C 86.399 104.659,87.120 104.658,87.521 104.597 C 87.923 104.536,87.530 104.487,86.649 104.489 C 85.768 104.490,85.439 104.540,85.919 104.599 M82.377 107.343 C 82.275 107.805,82.248 108.238,82.316 108.306 C 82.384 108.374,82.516 108.046,82.610 107.577 C 82.833 106.464,82.617 106.248,82.377 107.343 M162.903 106.943 C 162.903 107.089,163.074 107.510,163.284 107.877 C 163.494 108.244,163.666 108.425,163.666 108.278 C 163.666 108.131,163.494 107.710,163.284 107.343 C 163.074 106.976,162.903 106.796,162.903 106.943 M162.369 107.477 C 162.369 107.623,162.540 108.044,162.750 108.411 C 162.960 108.778,163.132 108.959,163.132 108.812 C 163.132 108.665,162.960 108.244,162.750 107.877 C 162.540 107.510,162.369 107.330,162.369 107.477 M164.238 110.837 C 164.248 111.192,164.365 111.722,164.498 112.016 C 164.667 112.388,164.691 112.226,164.578 111.482 C 164.389 110.242,164.211 109.904,164.238 110.837 M81.075 112.984 C 80.852 114.097,81.068 114.313,81.308 113.218 C 81.410 112.756,81.437 112.323,81.369 112.255 C 81.301 112.187,81.169 112.515,81.075 112.984 M110.615 113.084 C 110.618 113.672,110.672 113.880,110.736 113.548 C 110.800 113.216,110.798 112.735,110.731 112.480 C 110.664 112.225,110.612 112.497,110.615 113.084 M181.308 115.872 C 181.308 116.411,181.429 116.422,187.316 116.422 C 192.901 116.422,193.934 116.296,193.016 115.729 C 192.825 115.611,192.780 115.656,192.898 115.847 C 193.040 116.076,191.612 116.155,187.316 116.155 C 183.822 116.155,181.605 116.057,181.698 115.906 C 181.782 115.770,181.729 115.582,181.580 115.490 C 181.430 115.397,181.308 115.568,181.308 115.872 M260.881 115.752 C 260.881 116.101,258.654 116.160,243.057 116.222 L 225.234 116.292 243.324 116.357 C 261.259 116.421,261.415 116.417,261.415 115.888 C 261.415 115.594,261.295 115.354,261.148 115.354 C 261.001 115.354,260.881 115.533,260.881 115.752 M272.096 115.872 C 272.096 116.421,272.133 116.422,286.916 116.422 C 299.911 116.422,301.736 116.373,301.736 116.021 C 301.736 115.801,301.608 115.621,301.453 115.621 C 301.297 115.621,301.244 115.741,301.335 115.888 C 301.444 116.065,296.571 116.155,286.916 116.155 C 277.983 116.155,272.391 116.059,272.485 115.906 C 272.570 115.770,272.517 115.582,272.368 115.490 C 272.217 115.397,272.096 115.568,272.096 115.872 M146.333 115.955 C 146.329 116.389,146.790 116.418,152.804 116.360 L 159.279 116.299 153.017 116.222 C 148.420 116.165,146.699 116.057,146.545 115.816 C 146.399 115.586,146.335 115.627,146.333 115.955 M329.239 115.884 C 329.239 116.050,326.149 116.175,320.895 116.222 L 312.550 116.296 321.028 116.359 C 328.414 116.414,329.506 116.370,329.506 116.021 C 329.506 115.801,329.446 115.621,329.372 115.621 C 329.299 115.621,329.239 115.739,329.239 115.884 M162.164 116.354 C 163.751 116.402,166.274 116.401,167.772 116.354 C 169.269 116.306,167.971 116.268,164.887 116.268 C 161.802 116.268,160.577 116.307,162.164 116.354 M206.676 116.342 C 212.850 116.527,223.688 116.538,223.407 116.359 C 223.237 116.251,218.832 116.186,213.618 116.215 C 208.405 116.243,205.280 116.301,206.676 116.342 M225.923 117.445 C 226.615 118.399,226.782 120.176,226.352 122.029 C 226.199 122.689,226.216 122.847,226.408 122.566 C 227.290 121.274,226.960 118.032,225.846 117.055 C 225.344 116.615,225.353 116.661,225.923 117.445 M225.231 117.744 C 225.882 118.571,225.946 118.836,225.850 120.342 C 225.791 121.264,225.837 121.870,225.952 121.690 C 226.522 120.791,226.182 118.581,225.337 117.694 L 224.505 116.822 225.231 117.744 M301.744 117.490 C 301.744 117.710,301.860 118.071,302.003 118.291 C 302.233 118.647,302.262 118.647,302.262 118.291 C 302.262 118.071,302.145 117.710,302.003 117.490 C 301.773 117.134,301.744 117.134,301.744 117.490 M180.374 118.825 C 180.146 119.266,180.020 119.626,180.093 119.626 C 180.167 119.626,180.413 119.266,180.641 118.825 C 180.869 118.385,180.995 118.024,180.922 118.024 C 180.848 118.024,180.602 118.385,180.374 118.825 M171.170 118.440 C 171.165 118.596,171.338 118.956,171.554 119.241 C 171.769 119.526,171.949 119.632,171.954 119.477 C 171.959 119.321,171.786 118.961,171.571 118.676 C 171.355 118.391,171.175 118.285,171.170 118.440 M270.474 119.528 C 270.118 119.914,269.346 120.463,268.758 120.748 C 267.895 121.165,267.838 121.233,268.459 121.099 C 269.211 120.937,271.281 119.421,271.290 119.025 C 271.298 118.700,271.157 118.787,270.474 119.528 M304.170 121.437 C 304.189 121.895,304.246 121.989,304.324 121.692 C 304.391 121.434,304.557 121.290,304.693 121.374 C 304.829 121.458,304.940 121.412,304.940 121.273 C 304.940 121.133,304.760 120.949,304.539 120.865 C 304.240 120.750,304.147 120.895,304.170 121.437 M305.352 123.164 C 305.452 123.495,305.644 123.882,305.778 124.026 C 305.913 124.169,305.887 123.899,305.722 123.425 C 305.384 122.455,305.072 122.235,305.352 123.164 M304.959 124.032 C 304.959 124.179,305.131 124.599,305.340 124.967 C 305.550 125.334,305.722 125.514,305.722 125.367 C 305.722 125.220,305.550 124.800,305.340 124.433 C 305.131 124.065,304.959 123.885,304.959 124.032 M224.342 125.112 C 223.895 126.093,223.980 126.303,224.464 125.410 C 224.690 124.993,224.825 124.602,224.764 124.541 C 224.703 124.480,224.513 124.737,224.342 125.112 M224.864 125.794 C 224.700 126.264,224.575 126.781,224.585 126.942 C 224.595 127.104,224.776 126.766,224.986 126.192 C 225.197 125.617,225.323 125.100,225.266 125.043 C 225.209 124.986,225.028 125.324,224.864 125.794 M306.421 125.725 C 306.516 126.068,306.698 126.909,306.826 127.594 L 307.058 128.838 306.946 127.435 C 306.884 126.663,306.702 125.822,306.542 125.566 C 306.294 125.171,306.276 125.195,306.421 125.725 M110.431 128.238 C 110.329 129.302,110.176 130.462,110.091 130.814 C 109.991 131.227,110.036 131.393,110.216 131.281 C 110.371 131.186,110.577 130.477,110.674 129.706 C 110.929 127.690,111.313 126.619,111.831 126.483 C 112.080 126.417,111.908 126.350,111.450 126.333 L 110.616 126.302 110.431 128.238 M223.838 127.637 C 223.838 128.298,223.890 128.568,223.953 128.238 C 224.017 127.907,224.017 127.366,223.953 127.036 C 223.890 126.706,223.838 126.976,223.838 127.637 M306.081 127.637 C 306.081 128.298,306.133 128.568,306.196 128.238 C 306.260 127.907,306.260 127.366,306.196 127.036 C 306.133 126.706,306.081 126.976,306.081 127.637 M83.921 129.839 C 84.068 130.610,84.335 131.422,84.515 131.642 C 84.694 131.862,84.917 132.343,85.009 132.710 C 85.222 133.564,85.639 134.209,85.845 134.004 C 85.988 133.861,85.243 131.972,84.913 131.642 C 84.840 131.569,84.777 131.389,84.774 131.242 C 84.759 130.434,84.318 128.986,84.010 128.731 C 83.716 128.487,83.701 128.680,83.921 129.839 M305.267 129.985 L 304.659 130.975 305.333 130.225 C 305.704 129.813,306.008 129.363,306.008 129.224 C 306.008 128.831,305.918 128.924,305.267 129.985 M224.032 129.405 C 224.032 129.545,224.401 130.076,224.852 130.584 L 225.673 131.509 224.930 130.441 C 224.521 129.853,224.152 129.322,224.110 129.261 C 224.067 129.200,224.032 129.265,224.032 129.405 M225.503 130.269 C 226.064 130.933,227.778 131.913,228.361 131.903 C 228.550 131.900,228.164 131.652,227.503 131.353 C 226.842 131.053,226.002 130.545,225.636 130.224 L 224.970 129.640 225.503 130.269 M109.746 132.101 C 109.746 134.911,105.472 139.630,101.696 140.989 C 100.293 141.493,100.284 141.503,101.223 141.512 C 102.142 141.522,102.714 141.229,105.847 139.149 C 106.812 138.508,108.515 136.496,109.151 135.247 C 109.700 134.167,110.247 131.920,109.997 131.766 C 109.859 131.680,109.746 131.831,109.746 132.101 M226.435 131.811 C 226.435 131.991,228.341 132.763,228.470 132.634 C 228.529 132.575,228.095 132.337,227.506 132.106 C 226.917 131.874,226.435 131.742,226.435 131.811 M301.602 131.909 C 301.266 132.054,301.216 132.139,301.469 132.139 C 301.689 132.139,302.109 132.035,302.403 131.909 C 302.740 131.765,302.789 131.680,302.537 131.680 C 302.316 131.680,301.896 131.783,301.602 131.909 M243.792 132.695 C 243.792 133.142,244.265 133.253,244.423 132.842 C 244.516 132.600,244.422 132.443,244.184 132.443 C 243.968 132.443,243.792 132.556,243.792 132.695 M262.019 132.628 C 262.278 132.695,262.421 132.862,262.337 132.998 C 262.253 133.133,262.312 133.244,262.468 133.244 C 262.623 133.244,262.750 133.064,262.750 132.844 C 262.750 132.597,262.519 132.455,262.150 132.474 C 261.692 132.498,261.661 132.535,262.019 132.628 M293.658 132.641 C 294.576 132.693,296.078 132.693,296.996 132.641 C 297.914 132.589,297.163 132.546,295.327 132.546 C 293.491 132.546,292.740 132.589,293.658 132.641 M294.993 133.437 C 295.471 133.497,296.252 133.497,296.729 133.437 C 297.206 133.378,296.816 133.330,295.861 133.330 C 294.907 133.330,294.516 133.378,294.993 133.437 M86.178 135.180 C 86.747 136.347,89.154 139.378,89.542 139.417 C 89.713 139.435,89.943 139.435,90.053 139.417 C 90.164 139.400,90.254 139.503,90.254 139.647 C 90.254 140.584,96.031 142.594,96.508 141.823 C 96.587 141.694,96.024 141.506,95.256 141.404 C 92.302 141.012,88.500 138.341,86.782 135.450 C 85.994 134.123,85.571 133.934,86.178 135.180 M98.264 141.735 C 98.264 141.853,98.685 141.900,99.199 141.840 C 99.713 141.780,100.134 141.684,100.134 141.626 C 100.134 141.569,99.713 141.522,99.199 141.522 C 98.685 141.522,98.264 141.618,98.264 141.735 M136.261 152.173 C 135.997 152.597,136.016 152.719,136.366 152.853 C 136.901 153.058,136.932 153.010,136.739 152.264 C 136.587 151.677,136.571 151.674,136.261 152.173 M144.052 174.232 C 144.052 184.953,144.085 189.300,144.125 183.892 C 144.166 178.484,144.166 169.712,144.125 164.400 C 144.085 159.087,144.052 163.511,144.052 174.232 M59.875 162.904 C 59.101 163.009,58.311 163.224,58.120 163.383 C 57.867 163.592,57.670 163.582,57.403 163.345 C 57.131 163.103,57.136 163.150,57.423 163.526 C 57.636 163.805,57.790 164.106,57.766 164.193 C 57.741 164.281,57.771 164.403,57.833 164.464 C 57.894 164.525,57.944 164.436,57.944 164.267 C 57.944 163.114,62.141 162.848,66.946 163.695 C 70.155 164.261,71.834 164.276,69.025 163.714 C 64.884 162.885,61.948 162.626,59.875 162.904 M71.429 164.472 C 71.869 164.609,72.650 164.766,73.164 164.821 L 74.099 164.921 74.239 172.380 L 74.379 179.840 74.435 172.497 C 74.499 164.081,74.625 164.573,72.360 164.376 C 71.077 164.264,70.836 164.289,71.429 164.472 M73.698 181.960 C 73.698 182.319,73.818 182.686,73.965 182.777 C 74.383 183.035,74.320 192.444,73.899 192.614 C 73.699 192.694,73.753 192.757,74.032 192.769 C 74.529 192.792,74.740 185.542,74.330 182.547 C 74.152 181.253,73.698 180.831,73.698 181.960 M70.761 191.112 C 70.981 191.194,71.402 191.371,71.696 191.506 C 72.221 191.748,72.221 191.745,71.711 191.336 C 71.426 191.108,71.006 190.931,70.777 190.942 C 70.417 190.961,70.415 190.984,70.761 191.112 M51.081 204.005 C 51.081 204.813,51.131 205.144,51.193 204.740 C 51.254 204.336,51.254 203.675,51.193 203.271 C 51.131 202.867,51.081 203.198,51.081 204.005 M159.479 222.354 C 159.883 222.415,160.544 222.415,160.948 222.354 C 161.352 222.293,161.021 222.243,160.214 222.243 C 159.406 222.243,159.075 222.293,159.479 222.354 M132.972 223.031 C 132.704 223.584,132.711 223.594,133.071 223.148 C 133.415 222.721,133.833 222.674,136.665 222.748 C 138.428 222.793,139.814 222.740,139.746 222.630 C 139.390 222.058,133.268 222.420,132.972 223.031 M132.030 224.591 C 131.795 225.045,131.650 225.464,131.708 225.522 C 131.766 225.580,132.013 225.208,132.258 224.696 C 132.807 223.545,132.616 223.457,132.030 224.591 M83.445 226.168 C 83.738 226.294,84.159 226.398,84.379 226.398 C 84.632 226.398,84.582 226.313,84.246 226.168 C 83.952 226.042,83.531 225.939,83.311 225.939 C 83.059 225.939,83.108 226.024,83.445 226.168 M140.884 226.689 C 141.047 226.917,141.314 227.343,141.477 227.637 C 141.639 227.931,141.776 228.027,141.781 227.852 C 141.785 227.677,141.519 227.250,141.188 226.904 C 140.858 226.559,140.721 226.462,140.884 226.689 M46.529 227.370 C 46.532 227.957,46.587 228.166,46.651 227.834 C 46.715 227.502,46.712 227.021,46.645 226.766 C 46.579 226.511,46.526 226.782,46.529 227.370 M80.961 227.423 C 80.566 228.711,80.757 228.902,81.175 227.637 C 81.351 227.103,81.443 226.615,81.380 226.551 C 81.316 226.488,81.128 226.880,80.961 227.423 M142.118 230.441 C 142.118 230.955,142.173 231.165,142.240 230.908 C 142.307 230.651,142.307 230.230,142.240 229.973 C 142.173 229.716,142.118 229.927,142.118 230.441 M100.070 231.698 C 100.402 231.761,100.883 231.759,101.138 231.692 C 101.393 231.625,101.121 231.573,100.534 231.576 C 99.947 231.579,99.738 231.634,100.070 231.698 M141.278 232.412 L 140.633 233.244 141.397 232.518 C 141.817 232.119,142.108 231.744,142.042 231.685 C 141.976 231.627,141.632 231.954,141.278 232.412 M95.801 231.972 C 96.429 232.028,97.391 232.027,97.938 231.970 C 98.484 231.912,97.971 231.866,96.796 231.867 C 95.621 231.868,95.173 231.915,95.801 231.972 M66.822 233.035 C 67.226 233.096,67.887 233.096,68.291 233.035 C 68.695 232.974,68.364 232.924,67.557 232.924 C 66.749 232.924,66.419 232.974,66.822 233.035 M71.095 233.307 C 71.792 233.362,72.934 233.362,73.632 233.307 C 74.329 233.252,73.758 233.207,72.363 233.207 C 70.968 233.207,70.397 233.252,71.095 233.307 M121.495 235.514 C 121.862 235.632,122.403 235.728,122.697 235.728 C 123.120 235.728,123.092 235.683,122.563 235.514 C 122.196 235.396,121.656 235.300,121.362 235.300 C 120.939 235.300,120.967 235.345,121.495 235.514 M156.145 239.174 C 156.477 239.238,156.957 239.236,157.213 239.169 C 157.468 239.102,157.196 239.050,156.609 239.053 C 156.021 239.056,155.812 239.110,156.145 239.174 M147.324 239.445 C 147.798 239.504,148.639 239.505,149.193 239.447 C 149.747 239.389,149.359 239.341,148.331 239.340 C 147.303 239.339,146.850 239.386,147.324 239.445 M151.863 239.445 C 152.337 239.504,153.178 239.505,153.732 239.447 C 154.286 239.389,153.899 239.341,152.870 239.340 C 151.842 239.339,151.389 239.386,151.863 239.445 " stroke="none" fill="#9c848c" fill-rule="evenodd"></path></g></svg>